<svg xmlns="http://www.w3.org/2000/svg">
  <symbol fill="none" viewBox="0 0 24 24" id="close">
    <path d="M18 5.99994C17.8124 5.81247 17.5581 5.70715 17.293 5.70715C17.0278 5.70715 16.7735 5.81247 16.586 5.99994L12 10.5859L7.41397 5.99994C7.22644 5.81247 6.97213 5.70715 6.70697 5.70715C6.44181 5.70715 6.1875 5.81247 5.99997 5.99994C5.8125 6.18747 5.70718 6.44178 5.70718 6.70694C5.70718 6.9721 5.8125 7.22641 5.99997 7.41394L10.586 11.9999L5.99997 16.5859C5.8125 16.7735 5.70718 17.0278 5.70718 17.2929C5.70718 17.5581 5.8125 17.8124 5.99997 17.9999C6.1875 18.1874 6.44181 18.2927 6.70697 18.2927C6.97213 18.2927 7.22644 18.1874 7.41397 17.9999L12 13.4139L16.586 17.9999C16.7735 18.1874 17.0278 18.2927 17.293 18.2927C17.5581 18.2927 17.8124 18.1874 18 17.9999C18.1874 17.8124 18.2928 17.5581 18.2928 17.2929C18.2928 17.0278 18.1874 16.7735 18 16.5859L13.414 11.9999L18 7.41394C18.1874 7.22641 18.2928 6.9721 18.2928 6.70694C18.2928 6.44178 18.1874 6.18747 18 5.99994Z" fill="currentColor"/>
  </symbol>
  <symbol fill="none" viewBox="0 0 24 24" id="angle-double-left">
    <path d="M10.48 19.0001C10.2177 18.999 9.9663 18.8948 9.78004 18.7101L5.19004 14.1201C4.62824 13.5576 4.31268 12.7951 4.31268 12.0001C4.31268 11.2051 4.62824 10.4426 5.19004 9.88006L9.78004 5.29006C9.96741 5.10381 10.2209 4.99927 10.485 4.99927C10.7492 4.99927 11.0027 5.10381 11.19 5.29006C11.2838 5.38302 11.3582 5.49362 11.4089 5.61548C11.4597 5.73734 11.4858 5.86805 11.4858 6.00006C11.4858 6.13207 11.4597 6.26278 11.4089 6.38464C11.3582 6.5065 11.2838 6.6171 11.19 6.71006L6.60004 11.2901C6.50632 11.383 6.43192 11.4936 6.38115 11.6155C6.33038 11.7373 6.30425 11.868 6.30425 12.0001C6.30425 12.1321 6.33038 12.2628 6.38115 12.3846C6.43192 12.5065 6.50632 12.6171 6.60004 12.7101L11.19 17.2901C11.2838 17.383 11.3582 17.4936 11.4089 17.6155C11.4597 17.7373 11.4858 17.868 11.4858 18.0001C11.4858 18.1321 11.4597 18.2628 11.4089 18.3846C11.3582 18.5065 11.2838 18.6171 11.19 18.7101C11.0966 18.8027 10.9858 18.8761 10.864 18.9258C10.7421 18.9756 10.6117 19.0008 10.48 19.0001Z" fill="currentColor"/>
    <path d="M17.4799 19.0001C17.2175 18.999 16.9661 18.8948 16.7799 18.7101L10.7799 12.7101C10.6861 12.6171 10.6117 12.5065 10.561 12.3846C10.5102 12.2628 10.4841 12.1321 10.4841 12.0001C10.4841 11.868 10.5102 11.7373 10.561 11.6155C10.6117 11.4936 10.6861 11.383 10.7799 11.2901L16.7799 5.29006C16.9672 5.10381 17.2207 4.99927 17.4849 4.99927C17.749 4.99927 18.0025 5.10381 18.1899 5.29006C18.2836 5.38302 18.358 5.49362 18.4087 5.61548C18.4595 5.73734 18.4857 5.86805 18.4857 6.00006C18.4857 6.13207 18.4595 6.26278 18.4087 6.38464C18.358 6.5065 18.2836 6.6171 18.1899 6.71006L12.8999 12.0001L18.1899 17.2901C18.2836 17.383 18.358 17.4936 18.4087 17.6155C18.4595 17.7373 18.4857 17.868 18.4857 18.0001C18.4857 18.1321 18.4595 18.2628 18.4087 18.3846C18.358 18.5065 18.2836 18.6171 18.1899 18.7101C18.0964 18.8027 17.9856 18.8761 17.8638 18.9258C17.7419 18.9756 17.6115 19.0008 17.4799 19.0001Z" fill="currentColor"/>
  </symbol>
  <symbol fill="none" viewBox="0 0 24 24" id="angle-double-right">
    <path d="M13.1001 19.0001C12.9023 18.9992 12.7092 18.9398 12.5452 18.8292C12.3812 18.7187 12.2537 18.5619 12.1788 18.3789C12.1039 18.1959 12.0849 17.9947 12.1243 17.8009C12.1637 17.6071 12.2596 17.4293 12.4001 17.2901L17.0001 12.7101C17.0938 12.6171 17.1682 12.5065 17.219 12.3846C17.2697 12.2628 17.2959 12.1321 17.2959 12.0001C17.2959 11.868 17.2697 11.7373 17.219 11.6155C17.1682 11.4936 17.0938 11.383 17.0001 11.2901L12.4001 6.71006C12.3063 6.6171 12.2319 6.5065 12.1812 6.38464C12.1304 6.26278 12.1043 6.13207 12.1043 6.00006C12.1043 5.86805 12.1304 5.73734 12.1812 5.61548C12.2319 5.49362 12.3063 5.38302 12.4001 5.29006C12.5874 5.10381 12.8409 4.99927 13.1051 4.99927C13.3692 4.99927 13.6227 5.10381 13.8101 5.29006L18.4001 9.88006C18.9619 10.4426 19.2774 11.2051 19.2774 12.0001C19.2774 12.7951 18.9619 13.5576 18.4001 14.1201L13.8101 18.7101C13.7166 18.8027 13.6058 18.8761 13.484 18.9258C13.3621 18.9756 13.2317 19.0008 13.1001 19.0001Z" fill="currentColor"/>
    <path d="M6.09999 19.0001C5.90222 18.9992 5.70914 18.9398 5.54515 18.8292C5.38117 18.7187 5.25365 18.5619 5.17873 18.3789C5.1038 18.1959 5.08483 17.9947 5.12422 17.8009C5.1636 17.6071 5.25957 17.4293 5.39999 17.2901L10.69 12.0001L5.39999 6.71006C5.30627 6.6171 5.23187 6.5065 5.1811 6.38464C5.13033 6.26278 5.1042 6.13207 5.1042 6.00006C5.1042 5.86805 5.13033 5.73734 5.1811 5.61548C5.23187 5.49362 5.30627 5.38302 5.39999 5.29006C5.58736 5.10381 5.84081 4.99927 6.10499 4.99927C6.36918 4.99927 6.62263 5.10381 6.80999 5.29006L12.81 11.2901C12.9037 11.383 12.9781 11.4936 13.0289 11.6155C13.0797 11.7373 13.1058 11.868 13.1058 12.0001C13.1058 12.1321 13.0797 12.2628 13.0289 12.3846C12.9781 12.5065 12.9037 12.6171 12.81 12.7101L6.80999 18.7101C6.71655 18.8027 6.60574 18.8761 6.4839 18.9258C6.36206 18.9756 6.2316 19.0008 6.09999 19.0001Z" fill="currentColor"/>
  </symbol>
  <symbol fill="none" viewBox="0 0 24 24" id="angle-down">
    <path d="M18.7099 8.20998C18.6169 8.11625 18.5063 8.04186 18.3845 7.99109C18.2626 7.94032 18.1319 7.91418 17.9999 7.91418C17.8679 7.91418 17.7372 7.94032 17.6153 7.99109C17.4934 8.04186 17.3828 8.11625 17.2899 8.20998L12.7099 12.79C12.6169 12.8837 12.5063 12.9581 12.3845 13.0089C12.2626 13.0596 12.1319 13.0858 11.9999 13.0858C11.8679 13.0858 11.7372 13.0596 11.6153 13.0089C11.4934 12.9581 11.3828 12.8837 11.2899 12.79L6.70988 8.20998C6.61691 8.11625 6.50631 8.04186 6.38445 7.99109C6.26259 7.94032 6.13189 7.91418 5.99988 7.91418C5.86787 7.91418 5.73716 7.94032 5.6153 7.99109C5.49344 8.04186 5.38284 8.11625 5.28988 8.20998C5.10363 8.39734 4.99908 8.6508 4.99908 8.91498C4.99908 9.17917 5.10363 9.43262 5.28988 9.61998L9.87988 14.21C10.4424 14.7718 11.2049 15.0873 11.9999 15.0873C12.7949 15.0873 13.5574 14.7718 14.1199 14.21L18.7099 9.61998C18.8961 9.43262 19.0007 9.17917 19.0007 8.91498C19.0007 8.6508 18.8961 8.39734 18.7099 8.20998Z" fill="currentColor"/>
  </symbol>
  <symbol fill="none" viewBox="0 0 24 24" id="angle-left">
    <path d="M10.5999 12.7101C10.5062 12.6171 10.4318 12.5065 10.381 12.3846C10.3302 12.2628 10.3041 12.1321 10.3041 12.0001C10.3041 11.868 10.3302 11.7373 10.381 11.6155C10.4318 11.4936 10.5062 11.383 10.5999 11.2901L15.1899 6.71006C15.2836 6.6171 15.358 6.5065 15.4088 6.38464C15.4596 6.26278 15.4857 6.13207 15.4857 6.00006C15.4857 5.86805 15.4596 5.73734 15.4088 5.61548C15.358 5.49362 15.2836 5.38302 15.1899 5.29006C15.0025 5.10381 14.7491 4.99927 14.4849 4.99927C14.2207 4.99927 13.9673 5.10381 13.7799 5.29006L9.18989 9.88006C8.62809 10.4426 8.31253 11.2051 8.31253 12.0001C8.31253 12.7951 8.62809 13.5576 9.18989 14.1201L13.7799 18.7101C13.9662 18.8948 14.2176 18.999 14.4799 19.0001C14.6115 19.0008 14.742 18.9756 14.8638 18.9258C14.9856 18.8761 15.0965 18.8027 15.1899 18.7101C15.2836 18.6171 15.358 18.5065 15.4088 18.3846C15.4596 18.2628 15.4857 18.1321 15.4857 18.0001C15.4857 17.868 15.4596 17.7373 15.4088 17.6155C15.358 17.4936 15.2836 17.383 15.1899 17.2901L10.5999 12.7101Z" fill="currentColor"/>
  </symbol>
  <symbol fill="none" viewBox="0 0 24 24" id="angle-right">
    <path d="M15.3998 9.88006L10.8098 5.29006C10.6225 5.10381 10.369 4.99927 10.1048 4.99927C9.84065 4.99927 9.5872 5.10381 9.39983 5.29006C9.3061 5.38302 9.23171 5.49362 9.18094 5.61548C9.13017 5.73734 9.10403 5.86805 9.10403 6.00006C9.10403 6.13207 9.13017 6.26278 9.18094 6.38464C9.23171 6.5065 9.3061 6.6171 9.39983 6.71006L13.9998 11.2901C14.0936 11.383 14.168 11.4936 14.2187 11.6155C14.2695 11.7373 14.2956 11.868 14.2956 12.0001C14.2956 12.1321 14.2695 12.2628 14.2187 12.3846C14.168 12.5065 14.0936 12.6171 13.9998 12.7101L9.39983 17.2901C9.21153 17.477 9.10521 17.7312 9.10428 17.9965C9.10334 18.2619 9.20786 18.5168 9.39483 18.7051C9.58181 18.8934 9.83593 18.9997 10.1013 19.0006C10.3667 19.0016 10.6215 18.897 10.8098 18.7101L15.3998 14.1201C15.9616 13.5576 16.2772 12.7951 16.2772 12.0001C16.2772 11.2051 15.9616 10.4426 15.3998 9.88006Z" fill="currentColor"/>
  </symbol>
  <symbol fill="none" viewBox="0 0 24 24" id="angle-small-up">
    <path d="M17.9998 15.4999C17.8682 15.5007 17.7377 15.4755 17.6159 15.4257C17.494 15.3759 17.3832 15.3026 17.2898 15.2099L12.7098 10.6199C12.6168 10.5262 12.5062 10.4518 12.3844 10.401C12.2625 10.3503 12.1318 10.3241 11.9998 10.3241C11.8678 10.3241 11.7371 10.3503 11.6152 10.401C11.4934 10.4518 11.3828 10.5262 11.2898 10.6199L6.70979 15.2099C6.52149 15.3982 6.26609 15.504 5.99979 15.504C5.73349 15.504 5.47809 15.3982 5.28979 15.2099C5.10149 15.0216 4.9957 14.7662 4.9957 14.4999C4.9957 14.3681 5.02167 14.2375 5.07213 14.1157C5.12259 13.9939 5.19655 13.8832 5.28979 13.7899L9.87979 9.20994C10.4497 8.66237 11.2094 8.35657 11.9998 8.35657C12.7901 8.35657 13.5498 8.66237 14.1198 9.20994L18.7098 13.7899C18.8035 13.8829 18.8779 13.9935 18.9287 14.1154C18.9794 14.2372 19.0056 14.3679 19.0056 14.4999C19.0056 14.6319 18.9794 14.7626 18.9287 14.8845C18.8779 15.0064 18.8035 15.117 18.7098 15.2099C18.6163 15.3026 18.5055 15.3759 18.3837 15.4257C18.2619 15.4755 18.1314 15.5007 17.9998 15.4999Z" fill="currentColor"/>
  </symbol>
  <symbol fill="none" viewBox="0 0 24 24" id="apps-add">
    <path d="M7 0H4C2.93913 0 1.92172 0.421427 1.17157 1.17157C0.421427 1.92172 0 2.93913 0 4L0 7C0 8.06087 0.421427 9.07828 1.17157 9.82843C1.92172 10.5786 2.93913 11 4 11H7C8.06087 11 9.07828 10.5786 9.82843 9.82843C10.5786 9.07828 11 8.06087 11 7V4C11 2.93913 10.5786 1.92172 9.82843 1.17157C9.07828 0.421427 8.06087 0 7 0V0ZM9 7C9 7.53043 8.78929 8.03914 8.41421 8.41421C8.03914 8.78929 7.53043 9 7 9H4C3.46957 9 2.96086 8.78929 2.58579 8.41421C2.21071 8.03914 2 7.53043 2 7V4C2 3.46957 2.21071 2.96086 2.58579 2.58579C2.96086 2.21071 3.46957 2 4 2H7C7.53043 2 8.03914 2.21071 8.41421 2.58579C8.78929 2.96086 9 3.46957 9 4V7Z" fill="currentColor"/>
    <path d="M7 13H4C2.93913 13 1.92172 13.4214 1.17157 14.1716C0.421427 14.9217 0 15.9391 0 17L0 20C0 21.0609 0.421427 22.0783 1.17157 22.8284C1.92172 23.5786 2.93913 24 4 24H7C8.06087 24 9.07828 23.5786 9.82843 22.8284C10.5786 22.0783 11 21.0609 11 20V17C11 15.9391 10.5786 14.9217 9.82843 14.1716C9.07828 13.4214 8.06087 13 7 13ZM9 20C9 20.5304 8.78929 21.0392 8.41421 21.4142C8.03914 21.7893 7.53043 22 7 22H4C3.46957 22 2.96086 21.7893 2.58579 21.4142C2.21071 21.0392 2 20.5304 2 20V17C2 16.4696 2.21071 15.9609 2.58579 15.5858C2.96086 15.2107 3.46957 15 4 15H7C7.53043 15 8.03914 15.2107 8.41421 15.5858C8.78929 15.9609 9 16.4696 9 17V20Z" fill="currentColor"/>
    <path d="M20.0001 13H17.0001C15.9393 13 14.9218 13.4214 14.1717 14.1716C13.4215 14.9217 13.0001 15.9391 13.0001 17V20C13.0001 21.0609 13.4215 22.0783 14.1717 22.8284C14.9218 23.5786 15.9393 24 17.0001 24H20.0001C21.061 24 22.0784 23.5786 22.8285 22.8284C23.5787 22.0783 24.0001 21.0609 24.0001 20V17C24.0001 15.9391 23.5787 14.9217 22.8285 14.1716C22.0784 13.4214 21.061 13 20.0001 13ZM22.0001 20C22.0001 20.5304 21.7894 21.0392 21.4143 21.4142C21.0393 21.7893 20.5305 22 20.0001 22H17.0001C16.4697 22 15.961 21.7893 15.5859 21.4142C15.2108 21.0392 15.0001 20.5304 15.0001 20V17C15.0001 16.4696 15.2108 15.9609 15.5859 15.5858C15.961 15.2107 16.4697 15 17.0001 15H20.0001C20.5305 15 21.0393 15.2107 21.4143 15.5858C21.7894 15.9609 22.0001 16.4696 22.0001 17V20Z" fill="currentColor"/>
    <path d="M14.0001 7H17.0001V10C17.0001 10.2652 17.1055 10.5196 17.293 10.7071C17.4806 10.8946 17.7349 11 18.0001 11C18.2653 11 18.5197 10.8946 18.7072 10.7071C18.8948 10.5196 19.0001 10.2652 19.0001 10V7H22.0001C22.2653 7 22.5197 6.89464 22.7072 6.70711C22.8948 6.51957 23.0001 6.26522 23.0001 6C23.0001 5.73478 22.8948 5.48043 22.7072 5.29289C22.5197 5.10536 22.2653 5 22.0001 5H19.0001V2C19.0001 1.73478 18.8948 1.48043 18.7072 1.29289C18.5197 1.10536 18.2653 1 18.0001 1C17.7349 1 17.4806 1.10536 17.293 1.29289C17.1055 1.48043 17.0001 1.73478 17.0001 2V5H14.0001C13.7349 5 13.4806 5.10536 13.293 5.29289C13.1055 5.48043 13.0001 5.73478 13.0001 6C13.0001 6.26522 13.1055 6.51957 13.293 6.70711C13.4806 6.89464 13.7349 7 14.0001 7Z" fill="currentColor"/>
  </symbol>
  <symbol fill="none" viewBox="0 0 24 24" id="apps-delete">
    <path d="M7 0H4C2.93913 0 1.92172 0.421427 1.17157 1.17157C0.421427 1.92172 0 2.93913 0 4L0 7C0 8.06087 0.421427 9.07828 1.17157 9.82843C1.92172 10.5786 2.93913 11 4 11H7C8.06087 11 9.07828 10.5786 9.82843 9.82843C10.5786 9.07828 11 8.06087 11 7V4C11 2.93913 10.5786 1.92172 9.82843 1.17157C9.07828 0.421427 8.06087 0 7 0V0ZM9 7C9 7.53043 8.78929 8.03914 8.41421 8.41421C8.03914 8.78929 7.53043 9 7 9H4C3.46957 9 2.96086 8.78929 2.58579 8.41421C2.21071 8.03914 2 7.53043 2 7V4C2 3.46957 2.21071 2.96086 2.58579 2.58579C2.96086 2.21071 3.46957 2 4 2H7C7.53043 2 8.03914 2.21071 8.41421 2.58579C8.78929 2.96086 9 3.46957 9 4V7Z" fill="currentColor"/>
    <path d="M7 13H4C2.93913 13 1.92172 13.4214 1.17157 14.1716C0.421427 14.9217 0 15.9391 0 17L0 20C0 21.0609 0.421427 22.0783 1.17157 22.8284C1.92172 23.5786 2.93913 24 4 24H7C8.06087 24 9.07828 23.5786 9.82843 22.8284C10.5786 22.0783 11 21.0609 11 20V17C11 15.9391 10.5786 14.9217 9.82843 14.1716C9.07828 13.4214 8.06087 13 7 13ZM9 20C9 20.5304 8.78929 21.0392 8.41421 21.4142C8.03914 21.7893 7.53043 22 7 22H4C3.46957 22 2.96086 21.7893 2.58579 21.4142C2.21071 21.0392 2 20.5304 2 20V17C2 16.4696 2.21071 15.9609 2.58579 15.5858C2.96086 15.2107 3.46957 15 4 15H7C7.53043 15 8.03914 15.2107 8.41421 15.5858C8.78929 15.9609 9 16.4696 9 17V20Z" fill="currentColor"/>
    <path d="M19.9999 13H16.9999C15.939 13 14.9216 13.4214 14.1714 14.1716C13.4213 14.9217 12.9999 15.9391 12.9999 17V20C12.9999 21.0609 13.4213 22.0783 14.1714 22.8284C14.9216 23.5786 15.939 24 16.9999 24H19.9999C21.0607 24 22.0781 23.5786 22.8283 22.8284C23.5784 22.0783 23.9999 21.0609 23.9999 20V17C23.9999 15.9391 23.5784 14.9217 22.8283 14.1716C22.0781 13.4214 21.0607 13 19.9999 13ZM21.9999 20C21.9999 20.5304 21.7892 21.0392 21.4141 21.4142C21.039 21.7893 20.5303 22 19.9999 22H16.9999C16.4694 22 15.9607 21.7893 15.5857 21.4142C15.2106 21.0392 14.9999 20.5304 14.9999 20V17C14.9999 16.4696 15.2106 15.9609 15.5857 15.5858C15.9607 15.2107 16.4694 15 16.9999 15H19.9999C20.5303 15 21.039 15.2107 21.4141 15.5858C21.7892 15.9609 21.9999 16.4696 21.9999 17V20Z" fill="currentColor"/>
    <path d="M13.9999 7H21.9999C22.2651 7 22.5194 6.89464 22.707 6.7071C22.8945 6.51957 22.9999 6.26521 22.9999 6C22.9999 5.73478 22.8945 5.48043 22.707 5.29289C22.5194 5.10536 22.2651 5 21.9999 5H13.9999C13.7347 5 13.4803 5.10536 13.2928 5.29289C13.1052 5.48043 12.9999 5.73478 12.9999 6C12.9999 6.26521 13.1052 6.51957 13.2928 6.7071C13.4803 6.89464 13.7347 7 13.9999 7Z" fill="currentColor"/>
  </symbol>
  <symbol fill="none" viewBox="0 0 24 24" id="apps-sort">
    <path d="M7 0H4C2.93913 0 1.92172 0.421427 1.17157 1.17157C0.421427 1.92172 0 2.93913 0 4L0 7C0 8.06087 0.421427 9.07828 1.17157 9.82843C1.92172 10.5786 2.93913 11 4 11H7C8.06087 11 9.07828 10.5786 9.82843 9.82843C10.5786 9.07828 11 8.06087 11 7V4C11 2.93913 10.5786 1.92172 9.82843 1.17157C9.07828 0.421427 8.06087 0 7 0V0ZM9 7C9 7.53043 8.78929 8.03914 8.41421 8.41421C8.03914 8.78929 7.53043 9 7 9H4C3.46957 9 2.96086 8.78929 2.58579 8.41421C2.21071 8.03914 2 7.53043 2 7V4C2 3.46957 2.21071 2.96086 2.58579 2.58579C2.96086 2.21071 3.46957 2 4 2H7C7.53043 2 8.03914 2.21071 8.41421 2.58579C8.78929 2.96086 9 3.46957 9 4V7Z" fill="currentColor"/>
    <path d="M7 13H4C2.93913 13 1.92172 13.4214 1.17157 14.1716C0.421427 14.9217 0 15.9391 0 17L0 20C0 21.0609 0.421427 22.0783 1.17157 22.8284C1.92172 23.5786 2.93913 24 4 24H7C8.06087 24 9.07828 23.5786 9.82843 22.8284C10.5786 22.0783 11 21.0609 11 20V17C11 15.9391 10.5786 14.9217 9.82843 14.1716C9.07828 13.4214 8.06087 13 7 13ZM9 20C9 20.5304 8.78929 21.0392 8.41421 21.4142C8.03914 21.7893 7.53043 22 7 22H4C3.46957 22 2.96086 21.7893 2.58579 21.4142C2.21071 21.0392 2 20.5304 2 20V17C2 16.4696 2.21071 15.9609 2.58579 15.5858C2.96086 15.2107 3.46957 15 4 15H7C7.53043 15 8.03914 15.2107 8.41421 15.5858C8.78929 15.9609 9 16.4696 9 17V20Z" fill="currentColor"/>
    <path d="M22.2932 19.049L20.0002 21.339V2.63297L22.2932 4.92297C22.3861 5.01581 22.4964 5.08945 22.6178 5.13967C22.7391 5.18989 22.8692 5.21572 23.0005 5.21567C23.1319 5.21563 23.2619 5.18971 23.3833 5.1394C23.5046 5.08909 23.6148 5.01538 23.7077 4.92247C23.8005 4.82956 23.8742 4.71927 23.9244 4.5979C23.9746 4.47654 24.0004 4.34647 24.0004 4.21512C24.0003 4.08377 23.9744 3.95371 23.9241 3.83238C23.8738 3.71105 23.8001 3.60081 23.7072 3.50797L21.1202 0.924968C20.5577 0.363166 19.7952 0.0476074 19.0002 0.0476074C18.2052 0.0476074 17.4427 0.363166 16.8802 0.924968L14.2932 3.50797C14.2003 3.60081 14.1266 3.71105 14.0763 3.83238C14.026 3.95371 14 4.08377 14 4.21512C14 4.34647 14.0258 4.47654 14.076 4.5979C14.1262 4.71927 14.1999 4.82956 14.2927 4.92247C14.3855 5.01538 14.4958 5.08909 14.6171 5.1394C14.7384 5.18971 14.8685 5.21563 14.9998 5.21567C15.1312 5.21572 15.2613 5.18989 15.3826 5.13967C15.504 5.08945 15.6143 5.01581 15.7072 4.92297L18.0002 2.63297V21.339L15.7072 19.049C15.6143 18.9561 15.504 18.8825 15.3826 18.8323C15.2613 18.7821 15.1312 18.7562 14.9998 18.7563C14.8685 18.7563 14.7384 18.7822 14.6171 18.8325C14.4958 18.8829 14.3855 18.9566 14.2927 19.0495C14.1999 19.1424 14.1262 19.2527 14.076 19.374C14.0258 19.4954 14 19.6255 14 19.7568C14 19.8882 14.026 20.0182 14.0763 20.1396C14.1266 20.2609 14.2003 20.3711 14.2932 20.464L16.8802 23.047C17.4427 23.6088 18.2052 23.9243 19.0002 23.9243C19.7952 23.9243 20.5577 23.6088 21.1202 23.047L23.7072 20.464C23.8001 20.3711 23.8738 20.2609 23.9241 20.1396C23.9744 20.0182 24.0003 19.8882 24.0004 19.7568C24.0004 19.6255 23.9746 19.4954 23.9244 19.374C23.8742 19.2527 23.8005 19.1424 23.7077 19.0495C23.6148 18.9566 23.5046 18.8829 23.3833 18.8325C23.2619 18.7822 23.1319 18.7563 23.0005 18.7563C22.8692 18.7562 22.7391 18.7821 22.6178 18.8323C22.4964 18.8825 22.3861 18.9561 22.2932 19.049Z" fill="currentColor"/>
  </symbol>
  <symbol fill="none" viewBox="0 0 24 24" id="apps">
    <path d="M7 0H4C2.93913 0 1.92172 0.421427 1.17157 1.17157C0.421427 1.92172 0 2.93913 0 4L0 7C0 8.06087 0.421427 9.07828 1.17157 9.82843C1.92172 10.5786 2.93913 11 4 11H7C8.06087 11 9.07828 10.5786 9.82843 9.82843C10.5786 9.07828 11 8.06087 11 7V4C11 2.93913 10.5786 1.92172 9.82843 1.17157C9.07828 0.421427 8.06087 0 7 0V0ZM9 7C9 7.53043 8.78929 8.03914 8.41421 8.41421C8.03914 8.78929 7.53043 9 7 9H4C3.46957 9 2.96086 8.78929 2.58579 8.41421C2.21071 8.03914 2 7.53043 2 7V4C2 3.46957 2.21071 2.96086 2.58579 2.58579C2.96086 2.21071 3.46957 2 4 2H7C7.53043 2 8.03914 2.21071 8.41421 2.58579C8.78929 2.96086 9 3.46957 9 4V7Z" fill="currentColor"/>
    <path d="M19.9999 0H16.9999C15.939 0 14.9216 0.421428 14.1714 1.17157C13.4213 1.92172 12.9999 2.93914 12.9999 4V7C12.9999 8.06087 13.4213 9.07829 14.1714 9.82843C14.9216 10.5786 15.939 11 16.9999 11H19.9999C21.0607 11 22.0781 10.5786 22.8283 9.82843C23.5784 9.07829 23.9999 8.06087 23.9999 7V4C23.9999 2.93914 23.5784 1.92172 22.8283 1.17157C22.0781 0.421428 21.0607 0 19.9999 0V0ZM21.9999 7C21.9999 7.53044 21.7892 8.03915 21.4141 8.41422C21.039 8.78929 20.5303 9.00001 19.9999 9.00001H16.9999C16.4694 9.00001 15.9607 8.78929 15.5857 8.41422C15.2106 8.03915 14.9999 7.53044 14.9999 7V4C14.9999 3.46957 15.2106 2.96086 15.5857 2.58579C15.9607 2.21072 16.4694 2 16.9999 2H19.9999C20.5303 2 21.039 2.21072 21.4141 2.58579C21.7892 2.96086 21.9999 3.46957 21.9999 4V7Z" fill="currentColor"/>
    <path d="M7 13H4C2.93913 13 1.92172 13.4214 1.17157 14.1716C0.421427 14.9217 0 15.9391 0 17L0 20C0 21.0609 0.421427 22.0783 1.17157 22.8284C1.92172 23.5786 2.93913 24 4 24H7C8.06087 24 9.07828 23.5786 9.82843 22.8284C10.5786 22.0783 11 21.0609 11 20V17C11 15.9391 10.5786 14.9217 9.82843 14.1716C9.07828 13.4214 8.06087 13 7 13ZM9 20C9 20.5304 8.78929 21.0392 8.41421 21.4142C8.03914 21.7893 7.53043 22 7 22H4C3.46957 22 2.96086 21.7893 2.58579 21.4142C2.21071 21.0392 2 20.5304 2 20V17C2 16.4696 2.21071 15.9609 2.58579 15.5858C2.96086 15.2107 3.46957 15 4 15H7C7.53043 15 8.03914 15.2107 8.41421 15.5858C8.78929 15.9609 9 16.4696 9 17V20Z" fill="currentColor"/>
    <path d="M19.9999 13H16.9999C15.939 13 14.9216 13.4214 14.1714 14.1716C13.4213 14.9217 12.9999 15.9391 12.9999 17V20C12.9999 21.0609 13.4213 22.0783 14.1714 22.8284C14.9216 23.5786 15.939 24 16.9999 24H19.9999C21.0607 24 22.0781 23.5786 22.8283 22.8284C23.5784 22.0783 23.9999 21.0609 23.9999 20V17C23.9999 15.9391 23.5784 14.9217 22.8283 14.1716C22.0781 13.4214 21.0607 13 19.9999 13ZM21.9999 20C21.9999 20.5304 21.7892 21.0392 21.4141 21.4142C21.039 21.7893 20.5303 22 19.9999 22H16.9999C16.4694 22 15.9607 21.7893 15.5857 21.4142C15.2106 21.0392 14.9999 20.5304 14.9999 20V17C14.9999 16.4696 15.2106 15.9609 15.5857 15.5858C15.9607 15.2107 16.4694 15 16.9999 15H19.9999C20.5303 15 21.039 15.2107 21.4141 15.5858C21.7892 15.9609 21.9999 16.4696 21.9999 17V20Z" fill="currentColor"/>
  </symbol>
  <symbol fill="none" viewBox="0 0 24 24" id="caret-down">
    <path d="M6.41011 9H17.5901C17.7879 9.00083 17.981 9.06028 18.145 9.17085C18.3089 9.28141 18.4365 9.43811 18.5114 9.62115C18.5863 9.80418 18.6053 10.0053 18.5659 10.1991C18.5265 10.3929 18.4305 10.5707 18.2901 10.71L12.7101 16.29C12.6172 16.3837 12.5066 16.4581 12.3847 16.5089C12.2628 16.5596 12.1321 16.5858 12.0001 16.5858C11.8681 16.5858 11.7374 16.5596 11.6155 16.5089C11.4937 16.4581 11.3831 16.3837 11.2901 16.29L5.71011 10.71C5.56969 10.5707 5.47372 10.3929 5.43434 10.1991C5.39495 10.0053 5.41392 9.80418 5.48885 9.62115C5.56377 9.43811 5.69129 9.28141 5.85527 9.17085C6.01926 9.06028 6.21234 9.00083 6.41011 9Z" fill="currentColor"/>
  </symbol>
  <symbol fill="none" viewBox="0 0 24 24" id="caret-left">
    <path d="M13.29 18.59L7.70998 13C7.52373 12.8127 7.41919 12.5592 7.41919 12.295C7.41919 12.0309 7.52373 11.7774 7.70998 11.59L13.29 6.00004C13.4299 5.85901 13.6086 5.76283 13.8033 5.72376C13.998 5.68469 14.2 5.7045 14.3835 5.78067C14.5669 5.85684 14.7235 5.98591 14.8333 6.15143C14.9431 6.31695 15.0011 6.51141 15 6.71004V17.88C15.0011 18.0787 14.9431 18.2731 14.8333 18.4387C14.7235 18.6042 14.5669 18.7332 14.3835 18.8094C14.2 18.8856 13.998 18.9054 13.8033 18.8663C13.6086 18.8272 13.4299 18.7311 13.29 18.59Z" fill="currentColor"/>
  </symbol>
  <symbol fill="none" viewBox="0 0 24 24" id="caret-right">
    <path d="M9.00014 17.88V6.71004C8.99898 6.51141 9.05701 6.31695 9.16681 6.15143C9.27661 5.98591 9.43321 5.85684 9.61666 5.78067C9.8001 5.7045 10.0021 5.68469 10.1968 5.72376C10.3916 5.76283 10.5703 5.85901 10.7101 6.00004L16.2902 11.59C16.4764 11.7774 16.5809 12.0309 16.5809 12.295C16.5809 12.5592 16.4764 12.8127 16.2902 13L10.7101 18.59C10.5703 18.7311 10.3916 18.8272 10.1968 18.8663C10.0021 18.9054 9.8001 18.8856 9.61666 18.8094C9.43321 18.7332 9.27661 18.6042 9.16681 18.4387C9.05701 18.2731 8.99898 18.0787 9.00014 17.88Z" fill="currentColor"/>
  </symbol>
  <symbol fill="none" viewBox="0 0 24 24" id="caret-up">
    <path d="M6.40987 16.0001H17.5899C17.7876 15.9993 17.9807 15.9398 18.1447 15.8292C18.3087 15.7187 18.4362 15.562 18.5111 15.3789C18.5861 15.1959 18.605 14.9948 18.5656 14.801C18.5263 14.6071 18.4303 14.4294 18.2899 14.2901L12.7099 8.7101C12.6169 8.61638 12.5063 8.54198 12.3844 8.49121C12.2626 8.44045 12.1319 8.41431 11.9999 8.41431C11.8679 8.41431 11.7372 8.44045 11.6153 8.49121C11.4934 8.54198 11.3828 8.61638 11.2899 8.7101L5.70987 14.2901C5.56945 14.4294 5.47348 14.6071 5.43409 14.801C5.39471 14.9948 5.41368 15.1959 5.4886 15.3789C5.56353 15.562 5.69104 15.7187 5.85503 15.8292C6.01901 15.9398 6.2121 15.9993 6.40987 16.0001Z" fill="currentColor"/>
  </symbol>
  <symbol fill="none" viewBox="0 0 24 24" id="copy">
    <path d="M15 20H5C3.67441 19.9984 2.40356 19.4711 1.46622 18.5338C0.528882 17.5964 0.00158786 16.3256 0 15L0 5C0.00158786 3.67441 0.528882 2.40356 1.46622 1.46622C2.40356 0.528882 3.67441 0.00158786 5 0L15 0C16.3256 0.00158786 17.5964 0.528882 18.5338 1.46622C19.4711 2.40356 19.9984 3.67441 20 5V15C19.9984 16.3256 19.4711 17.5964 18.5338 18.5338C17.5964 19.4711 16.3256 19.9984 15 20ZM5 2C4.20435 2 3.44129 2.31607 2.87868 2.87868C2.31607 3.44129 2 4.20435 2 5V15C2 15.7956 2.31607 16.5587 2.87868 17.1213C3.44129 17.6839 4.20435 18 5 18H15C15.7956 18 16.5587 17.6839 17.1213 17.1213C17.6839 16.5587 18 15.7956 18 15V5C18 4.20435 17.6839 3.44129 17.1213 2.87868C16.5587 2.31607 15.7956 2 15 2H5ZM24 19V6C24 5.73478 23.8946 5.48043 23.7071 5.29289C23.5196 5.10536 23.2652 5 23 5C22.7348 5 22.4804 5.10536 22.2929 5.29289C22.1054 5.48043 22 5.73478 22 6V19C22 19.7956 21.6839 20.5587 21.1213 21.1213C20.5587 21.6839 19.7956 22 19 22H6C5.73478 22 5.48043 22.1054 5.29289 22.2929C5.10536 22.4804 5 22.7348 5 23C5 23.2652 5.10536 23.5196 5.29289 23.7071C5.48043 23.8946 5.73478 24 6 24H19C20.3256 23.9984 21.5964 23.4711 22.5338 22.5338C23.4711 21.5964 23.9984 20.3256 24 19Z" fill="currentColor"/>
  </symbol>
  <symbol fill="none" viewBox="0 0 24 24" id="document">
    <path d="M17.0002 14C17.0002 14.2652 16.8948 14.5196 16.7073 14.7071C16.5197 14.8947 16.2654 15 16.0002 15H8.00015C7.73494 15 7.48058 14.8947 7.29305 14.7071C7.10551 14.5196 7.00015 14.2652 7.00015 14C7.00015 13.7348 7.10551 13.4805 7.29305 13.2929C7.48058 13.1054 7.73494 13 8.00015 13H16.0002C16.2654 13 16.5197 13.1054 16.7073 13.2929C16.8948 13.4805 17.0002 13.7348 17.0002 14ZM13.0002 17H8.00015C7.73494 17 7.48058 17.1054 7.29305 17.2929C7.10551 17.4805 7.00015 17.7348 7.00015 18C7.00015 18.2652 7.10551 18.5196 7.29305 18.7071C7.48058 18.8947 7.73494 19 8.00015 19H13.0002C13.2654 19 13.5197 18.8947 13.7073 18.7071C13.8948 18.5196 14.0002 18.2652 14.0002 18C14.0002 17.7348 13.8948 17.4805 13.7073 17.2929C13.5197 17.1054 13.2654 17 13.0002 17ZM22.0002 10.485V19C21.9986 20.3256 21.4713 21.5965 20.5339 22.5338C19.5966 23.4711 18.3257 23.9984 17.0002 24H7.00015C5.67456 23.9984 4.40371 23.4711 3.46637 22.5338C2.52903 21.5965 2.00174 20.3256 2.00015 19V5.00002C2.00174 3.67443 2.52903 2.40358 3.46637 1.46624C4.40371 0.528905 5.67456 0.00161091 7.00015 2.30487e-05H11.5152C12.4348 -0.00234388 13.3457 0.177611 14.1954 0.529482C15.045 0.881354 15.8165 1.39816 16.4652 2.05002L19.9492 5.53602C20.6014 6.18426 21.1185 6.95548 21.4706 7.805C21.8226 8.65451 22.0026 9.56545 22.0002 10.485ZM15.0512 3.46402C14.7364 3.15918 14.3831 2.89695 14.0002 2.68402V7.00002C14.0002 7.26524 14.1055 7.51959 14.293 7.70713C14.4806 7.89467 14.7349 8.00002 15.0002 8.00002H19.3162C19.1031 7.61721 18.8405 7.26417 18.5352 6.95002L15.0512 3.46402ZM20.0002 10.485C20.0002 10.32 19.9682 10.162 19.9532 10H15.0002C14.2045 10 13.4414 9.68395 12.8788 9.12134C12.3162 8.55873 12.0002 7.79567 12.0002 7.00002V2.04702C11.8382 2.03202 11.6792 2.00002 11.5152 2.00002H7.00015C6.2045 2.00002 5.44144 2.31609 4.87883 2.8787C4.31622 3.44131 4.00015 4.20437 4.00015 5.00002V19C4.00015 19.7957 4.31622 20.5587 4.87883 21.1213C5.44144 21.684 6.2045 22 7.00015 22H17.0002C17.7958 22 18.5589 21.684 19.1215 21.1213C19.6841 20.5587 20.0002 19.7957 20.0002 19V10.485Z" fill="currentColor"/>
  </symbol>
  <symbol fill="none" viewBox="0 0 24 24" id="envelope-plus">
    <path d="M24 10V19C23.9984 20.3256 23.4711 21.5964 22.5338 22.5338C21.5964 23.4711 20.3256 23.9984 19 24H5C3.67441 23.9984 2.40356 23.4711 1.46622 22.5338C0.528882 21.5964 0.00158786 20.3256 0 19L0 8C0.00158786 6.67441 0.528882 5.40356 1.46622 4.46622C2.40356 3.52888 3.67441 3.00159 5 3H13C13.2652 3 13.5196 3.10536 13.7071 3.29289C13.8946 3.48043 14 3.73478 14 4C14 4.26522 13.8946 4.51957 13.7071 4.70711C13.5196 4.89464 13.2652 5 13 5H5C4.45621 5.0015 3.92312 5.15128 3.45812 5.43321C2.99311 5.71514 2.6138 6.11854 2.361 6.6L9.878 14.118C10.4417 14.6791 11.2047 14.9941 12 14.9941C12.7953 14.9941 13.5583 14.6791 14.122 14.118L17.943 10.3C18.1316 10.1178 18.3842 10.017 18.6464 10.0193C18.9086 10.0216 19.1594 10.1268 19.3448 10.3122C19.5302 10.4976 19.6354 10.7484 19.6377 11.0106C19.64 11.2728 19.5392 11.5254 19.357 11.714L15.536 15.536C14.5972 16.472 13.3257 16.9976 12 16.9976C10.6743 16.9976 9.40276 16.472 8.464 15.536L2 9.071V19C2 19.7956 2.31607 20.5587 2.87868 21.1213C3.44129 21.6839 4.20435 22 5 22H19C19.7956 22 20.5587 21.6839 21.1213 21.1213C21.6839 20.5587 22 19.7956 22 19V10C22 9.73478 22.1054 9.48043 22.2929 9.29289C22.4804 9.10536 22.7348 9 23 9C23.2652 9 23.5196 9.10536 23.7071 9.29289C23.8946 9.48043 24 9.73478 24 10ZM17 5H19V7C19 7.26522 19.1054 7.51957 19.2929 7.70711C19.4804 7.89464 19.7348 8 20 8C20.2652 8 20.5196 7.89464 20.7071 7.70711C20.8946 7.51957 21 7.26522 21 7V5H23C23.2652 5 23.5196 4.89464 23.7071 4.70711C23.8946 4.51957 24 4.26522 24 4C24 3.73478 23.8946 3.48043 23.7071 3.29289C23.5196 3.10536 23.2652 3 23 3H21V1C21 0.734784 20.8946 0.48043 20.7071 0.292893C20.5196 0.105357 20.2652 0 20 0C19.7348 0 19.4804 0.105357 19.2929 0.292893C19.1054 0.48043 19 0.734784 19 1V3H17C16.7348 3 16.4804 3.10536 16.2929 3.29289C16.1054 3.48043 16 3.73478 16 4C16 4.26522 16.1054 4.51957 16.2929 4.70711C16.4804 4.89464 16.7348 5 17 5Z" fill="currentColor"/>
  </symbol>
  <symbol fill="none" viewBox="0 0 24 24" id="envelope">
    <path d="M19 0.999878H5C3.67441 1.00147 2.40356 1.52876 1.46622 2.4661C0.528882 3.40344 0.00158786 4.67428 0 5.99988L0 17.9999C0.00158786 19.3255 0.528882 20.5963 1.46622 21.5337C2.40356 22.471 3.67441 22.9983 5 22.9999H19C20.3256 22.9983 21.5964 22.471 22.5338 21.5337C23.4711 20.5963 23.9984 19.3255 24 17.9999V5.99988C23.9984 4.67428 23.4711 3.40344 22.5338 2.4661C21.5964 1.52876 20.3256 1.00147 19 0.999878ZM5 2.99988H19C19.5988 3.00106 20.1835 3.18139 20.679 3.51768C21.1744 3.85397 21.5579 4.33082 21.78 4.88688L14.122 12.5459C13.5584 13.1072 12.7954 13.4223 12 13.4223C11.2046 13.4223 10.4416 13.1072 9.878 12.5459L2.22 4.88688C2.44215 4.33082 2.82561 3.85397 3.32105 3.51768C3.81648 3.18139 4.40121 3.00106 5 2.99988ZM19 20.9999H5C4.20435 20.9999 3.44129 20.6838 2.87868 20.1212C2.31607 19.5586 2 18.7955 2 17.9999V7.49988L8.464 13.9599C9.40263 14.8961 10.6743 15.4219 12 15.4219C13.3257 15.4219 14.5974 14.8961 15.536 13.9599L22 7.49988V17.9999C22 18.7955 21.6839 19.5586 21.1213 20.1212C20.5587 20.6838 19.7956 20.9999 19 20.9999Z" fill="currentColor"/>
  </symbol>
  <symbol fill="none" viewBox="0 0 24 24" id="eye-crossed">
    <path d="M23.2709 9.41885C22.3681 7.94057 21.2294 6.6201 19.8999 5.50985L22.6999 2.70985C22.882 2.52125 22.9828 2.26864 22.9805 2.00645C22.9783 1.74425 22.8731 1.49344 22.6877 1.30803C22.5023 1.12262 22.2515 1.01745 21.9893 1.01517C21.7271 1.0129 21.4745 1.11369 21.2859 1.29585L18.2409 4.34485C16.3533 3.22367 14.1953 2.63931 11.9999 2.65485C5.80887 2.65485 2.28087 6.89285 0.728868 9.41885C0.249396 10.1944 -0.00457764 11.0881 -0.00457764 11.9998C-0.00457764 12.9116 0.249396 13.8053 0.728868 14.5808C1.63162 16.0591 2.77036 17.3796 4.09987 18.4898L1.29987 21.2899C1.20436 21.3821 1.12818 21.4924 1.07577 21.6144C1.02336 21.7364 0.995772 21.8677 0.994618 22.0004C0.993464 22.1332 1.01877 22.2649 1.06905 22.3878C1.11933 22.5107 1.19358 22.6224 1.28747 22.7162C1.38137 22.8101 1.49302 22.8844 1.61591 22.9347C1.73881 22.985 1.87049 23.0103 2.00327 23.0091C2.13605 23.0079 2.26727 22.9804 2.38927 22.9279C2.51128 22.8755 2.62162 22.7994 2.71387 22.7038L5.76587 19.6518C7.65114 20.7728 9.80654 21.3582 11.9999 21.3448C18.1909 21.3448 21.7189 17.1068 23.2709 14.5808C23.7503 13.8053 24.0043 12.9116 24.0043 11.9998C24.0043 11.0881 23.7503 10.1944 23.2709 9.41885ZM2.43287 13.5338C2.148 13.0729 1.99712 12.5417 1.99712 11.9998C1.99712 11.458 2.148 10.9268 2.43287 10.4658C3.76687 8.29985 6.78187 4.65485 11.9999 4.65485C13.6601 4.64555 15.2971 5.04569 16.7659 5.81985L14.7529 7.83285C13.7928 7.19545 12.6418 6.90984 11.4951 7.02449C10.3484 7.13914 9.27673 7.64699 8.46187 8.46185C7.64701 9.27671 7.13916 10.3484 7.02451 11.4951C6.90986 12.6418 7.19547 13.7928 7.83287 14.7528L5.52287 17.0628C4.29797 16.0726 3.25271 14.8788 2.43287 13.5338ZM14.9999 11.9998C14.9999 12.7955 14.6838 13.5586 14.1212 14.1212C13.5586 14.6838 12.7955 14.9998 11.9999 14.9998C11.5544 14.9981 11.1151 14.8956 10.7149 14.6998L14.6999 10.7148C14.8956 11.115 14.9981 11.5544 14.9999 11.9998ZM8.99987 11.9998C8.99987 11.2042 9.31594 10.4411 9.87855 9.87853C10.4412 9.31592 11.2042 8.99985 11.9999 8.99985C12.4454 9.00157 12.8847 9.10414 13.2849 9.29985L9.29987 13.2848C9.10416 12.8847 9.00159 12.4453 8.99987 11.9998ZM21.5669 13.5338C20.2329 15.6998 17.2179 19.3448 11.9999 19.3448C10.3396 19.3542 8.70263 18.954 7.23387 18.1798L9.24687 16.1668C10.2069 16.8042 11.358 17.0899 12.5046 16.9752C13.6513 16.8606 14.723 16.3527 15.5379 15.5378C16.3527 14.723 16.8606 13.6513 16.9752 12.5046C17.0899 11.3579 16.8043 10.2069 16.1669 9.24685L18.4769 6.93685C19.7018 7.92713 20.747 9.1209 21.5669 10.4658C21.8517 10.9268 22.0026 11.458 22.0026 11.9998C22.0026 12.5417 21.8517 13.0729 21.5669 13.5338Z" fill="currentColor"/>
  </symbol>
  <symbol fill="none" viewBox="0 0 24 24" id="eye">
    <path d="M23.2709 9.41891C21.7199 6.89291 18.1919 2.65491 11.9999 2.65491C5.80787 2.65491 2.27987 6.89291 0.728868 9.41891C0.249396 10.1944 -0.00457764 11.0881 -0.00457764 11.9999C-0.00457764 12.9117 0.249396 13.8054 0.728868 14.5809C2.27987 17.1069 5.80787 21.3449 11.9999 21.3449C18.1919 21.3449 21.7199 17.1069 23.2709 14.5809C23.7503 13.8054 24.0043 12.9117 24.0043 11.9999C24.0043 11.0881 23.7503 10.1944 23.2709 9.41891ZM21.5659 13.5339C20.2339 15.6999 17.2189 19.3449 11.9999 19.3449C6.78087 19.3449 3.76587 15.6999 2.43387 13.5339C2.149 13.073 1.99812 12.5418 1.99812 11.9999C1.99812 11.458 2.149 10.9269 2.43387 10.4659C3.76587 8.29991 6.78087 4.65491 11.9999 4.65491C17.2189 4.65491 20.2339 8.29591 21.5659 10.4659C21.8507 10.9269 22.0016 11.458 22.0016 11.9999C22.0016 12.5418 21.8507 13.073 21.5659 13.5339Z" fill="currentColor"/>
    <path d="M11.9998 6.99988C11.0109 6.99988 10.0442 7.29312 9.22194 7.84253C8.39969 8.39194 7.75883 9.17283 7.38039 10.0865C7.00195 11.0001 6.90294 12.0054 7.09586 12.9753C7.28879 13.9452 7.76499 14.8362 8.46425 15.5354C9.16352 16.2347 10.0544 16.7109 11.0243 16.9038C11.9942 17.0967 12.9996 16.9977 13.9132 16.6193C14.8268 16.2408 15.6077 15.6 16.1571 14.7777C16.7065 13.9555 16.9998 12.9888 16.9998 11.9999C16.9982 10.6743 16.4709 9.40344 15.5336 8.4661C14.5962 7.52876 13.3254 7.00147 11.9998 6.99988ZM11.9998 14.9999C11.4064 14.9999 10.8264 14.8239 10.3331 14.4943C9.83973 14.1646 9.45521 13.6961 9.22815 13.1479C9.00109 12.5998 8.94168 11.9966 9.05743 11.4146C9.17319 10.8327 9.45891 10.2981 9.87847 9.87856C10.298 9.459 10.8326 9.17328 11.4145 9.05752C11.9965 8.94177 12.5997 9.00118 13.1478 9.22824C13.696 9.4553 14.1646 9.83982 14.4942 10.3332C14.8238 10.8265 14.9998 11.4065 14.9998 11.9999C14.9998 12.7955 14.6837 13.5586 14.1211 14.1212C13.5585 14.6838 12.7954 14.9999 11.9998 14.9999Z" fill="currentColor"/>
  </symbol>
  <symbol fill="none" viewBox="0 0 24 24" id="grid">
    <path d="M4.5 17.5004H2C1.46957 17.5004 0.960859 17.7111 0.585786 18.0862C0.210714 18.4612 0 18.9699 0 19.5004L0 22.0004C0 22.5308 0.210714 23.0395 0.585786 23.4146C0.960859 23.7896 1.46957 24.0004 2 24.0004H4.5C5.03043 24.0004 5.53914 23.7896 5.91421 23.4146C6.28929 23.0395 6.5 22.5308 6.5 22.0004V19.5004C6.5 18.9699 6.28929 18.4612 5.91421 18.0862C5.53914 17.7111 5.03043 17.5004 4.5 17.5004ZM4.5 22.0004H2V19.5004H4.5V22.0004Z" fill="currentColor"/>
    <path d="M22.0001 17.5004H19.5001C18.9697 17.5004 18.461 17.7111 18.0859 18.0862C17.7108 18.4612 17.5001 18.9699 17.5001 19.5004V22.0004C17.5001 22.5308 17.7108 23.0395 18.0859 23.4146C18.461 23.7896 18.9697 24.0004 19.5001 24.0004H22.0001C22.5305 24.0004 23.0392 23.7896 23.4143 23.4146C23.7894 23.0395 24.0001 22.5308 24.0001 22.0004V19.5004C24.0001 18.9699 23.7894 18.4612 23.4143 18.0862C23.0392 17.7111 22.5305 17.5004 22.0001 17.5004ZM22.0001 22.0004H19.5001V19.5004H22.0001V22.0004Z" fill="currentColor"/>
    <path d="M4.5 8.74976H2C1.46957 8.74976 0.960859 8.96047 0.585786 9.33554C0.210714 9.71061 0 10.2193 0 10.7498L0 13.2497C0 13.7802 0.210714 14.2889 0.585786 14.664C0.960859 15.039 1.46957 15.2497 2 15.2497H4.5C5.03043 15.2497 5.53914 15.039 5.91421 14.664C6.28929 14.2889 6.5 13.7802 6.5 13.2497V10.7498C6.5 10.2193 6.28929 9.71061 5.91421 9.33554C5.53914 8.96047 5.03043 8.74976 4.5 8.74976ZM4.5 13.2497H2V10.7498H4.5V13.2497Z" fill="currentColor"/>
    <path d="M22.0001 8.74976H19.5001C18.9697 8.74976 18.461 8.96047 18.0859 9.33554C17.7108 9.71061 17.5001 10.2193 17.5001 10.7498V13.2497C17.5001 13.7802 17.7108 14.2889 18.0859 14.664C18.461 15.039 18.9697 15.2497 19.5001 15.2497H22.0001C22.5305 15.2497 23.0392 15.039 23.4143 14.664C23.7894 14.2889 24.0001 13.7802 24.0001 13.2497V10.7498C24.0001 10.2193 23.7894 9.71061 23.4143 9.33554C23.0392 8.96047 22.5305 8.74976 22.0001 8.74976ZM22.0001 13.2497H19.5001V10.7498H22.0001V13.2497Z" fill="currentColor"/>
    <path d="M4.5 0H2C1.46957 0 0.960859 0.210714 0.585786 0.585786C0.210714 0.960859 0 1.46957 0 2L0 4.5C0 5.03043 0.210714 5.53914 0.585786 5.91421C0.960859 6.28929 1.46957 6.5 2 6.5H4.5C5.03043 6.5 5.53914 6.28929 5.91421 5.91421C6.28929 5.53914 6.5 5.03043 6.5 4.5V2C6.5 1.46957 6.28929 0.960859 5.91421 0.585786C5.53914 0.210714 5.03043 0 4.5 0V0ZM4.5 4.5H2V2H4.5V4.5Z" fill="currentColor"/>
    <path d="M13.2499 17.5004H10.7499C10.2194 17.5004 9.71074 17.7111 9.33566 18.0862C8.96059 18.4612 8.74988 18.9699 8.74988 19.5004V22.0004C8.74988 22.5308 8.96059 23.0395 9.33566 23.4146C9.71074 23.7896 10.2194 24.0004 10.7499 24.0004H13.2499C13.7803 24.0004 14.289 23.7896 14.6641 23.4146C15.0391 23.0395 15.2499 22.5308 15.2499 22.0004V19.5004C15.2499 18.9699 15.0391 18.4612 14.6641 18.0862C14.289 17.7111 13.7803 17.5004 13.2499 17.5004ZM13.2499 22.0004H10.7499V19.5004H13.2499V22.0004Z" fill="currentColor"/>
    <path d="M13.2499 8.74976H10.7499C10.2194 8.74976 9.71074 8.96047 9.33566 9.33554C8.96059 9.71061 8.74988 10.2193 8.74988 10.7498V13.2497C8.74988 13.7802 8.96059 14.2889 9.33566 14.664C9.71074 15.039 10.2194 15.2497 10.7499 15.2497H13.2499C13.7803 15.2497 14.289 15.039 14.6641 14.664C15.0391 14.2889 15.2499 13.7802 15.2499 13.2497V10.7498C15.2499 10.2193 15.0391 9.71061 14.6641 9.33554C14.289 8.96047 13.7803 8.74976 13.2499 8.74976ZM13.2499 13.2497H10.7499V10.7498H13.2499V13.2497Z" fill="currentColor"/>
    <path d="M13.2499 0H10.7499C10.2194 0 9.71074 0.210714 9.33566 0.585786C8.96059 0.960859 8.74988 1.46957 8.74988 2V4.5C8.74988 5.03043 8.96059 5.53914 9.33566 5.91421C9.71074 6.28929 10.2194 6.5 10.7499 6.5H13.2499C13.7803 6.5 14.289 6.28929 14.6641 5.91421C15.0391 5.53914 15.2499 5.03043 15.2499 4.5V2C15.2499 1.46957 15.0391 0.960859 14.6641 0.585786C14.289 0.210714 13.7803 0 13.2499 0V0ZM13.2499 4.5H10.7499V2H13.2499V4.5Z" fill="currentColor"/>
    <path d="M22.0001 0H19.5001C18.9697 0 18.461 0.210714 18.0859 0.585786C17.7108 0.960859 17.5001 1.46957 17.5001 2V4.5C17.5001 5.03043 17.7108 5.53914 18.0859 5.91421C18.461 6.28929 18.9697 6.5 19.5001 6.5H22.0001C22.5305 6.5 23.0392 6.28929 23.4143 5.91421C23.7894 5.53914 24.0001 5.03043 24.0001 4.5V2C24.0001 1.46957 23.7894 0.960859 23.4143 0.585786C23.0392 0.210714 22.5305 0 22.0001 0V0ZM22.0001 4.5H19.5001V2H22.0001V4.5Z" fill="currentColor"/>
  </symbol>
  <symbol fill="none" viewBox="0 0 24 24" id="layers">
    <path d="M22.4852 10.9753L12.0002 17.2673L1.51515 10.9753C1.28773 10.8388 1.01541 10.7983 0.758115 10.8626C0.500815 10.9269 0.279606 11.0909 0.143152 11.3183C0.00669825 11.5457 -0.0338234 11.818 0.0305016 12.0753C0.0948266 12.3326 0.258729 12.5538 0.486152 12.6903L11.4862 19.2903C11.6417 19.3837 11.8197 19.4331 12.0012 19.4331C12.1826 19.4331 12.3606 19.3837 12.5162 19.2903L23.5162 12.6903C23.7436 12.5538 23.9075 12.3326 23.9718 12.0753C24.0361 11.818 23.9956 11.5457 23.8592 11.3183C23.7227 11.0909 23.5015 10.9269 23.2442 10.8626C22.9869 10.7983 22.7146 10.8388 22.4872 10.9753H22.4852Z" fill="currentColor"/>
    <path d="M22.4852 15.5428L12.0002 21.8338L1.51521 15.5428C1.4026 15.4752 1.27779 15.4305 1.1479 15.4112C1.018 15.3918 0.885575 15.3983 0.758173 15.4301C0.630771 15.462 0.51089 15.5186 0.405374 15.5968C0.299859 15.675 0.210775 15.7732 0.14321 15.8858C0.0756451 15.9984 0.0309215 16.1232 0.0115929 16.2531C-0.00773575 16.383 -0.00129082 16.5154 0.0305597 16.6428C0.0948847 16.9001 0.258787 17.1213 0.48621 17.2578L11.4862 23.8578C11.6417 23.9513 11.8198 24.0006 12.0012 24.0006C12.1827 24.0006 12.3607 23.9513 12.5162 23.8578L23.5162 17.2578C23.7436 17.1213 23.9075 16.9001 23.9719 16.6428C24.0362 16.3855 23.9957 16.1132 23.8592 15.8858C23.7228 15.6584 23.5016 15.4945 23.2442 15.4301C22.9869 15.3658 22.7146 15.4063 22.4872 15.5428H22.4852Z" fill="currentColor"/>
    <path d="M11.9999 14.7734C11.4605 14.7731 10.9313 14.6262 10.4689 14.3484L0.484912 8.35742C0.33706 8.26852 0.214723 8.14288 0.129793 7.99271C0.0448631 7.84254 0.000228882 7.67295 0.000228882 7.50042C0.000228882 7.3279 0.0448631 7.15831 0.129793 7.00814C0.214723 6.85797 0.33706 6.73233 0.484912 6.64342L10.4689 0.652422C10.9313 0.374651 11.4605 0.227905 11.9999 0.227905C12.5393 0.227905 13.0685 0.374651 13.5309 0.652422L23.5149 6.64342C23.6628 6.73233 23.7851 6.85797 23.87 7.00814C23.955 7.15831 23.9996 7.3279 23.9996 7.50042C23.9996 7.67295 23.955 7.84254 23.87 7.99271C23.7851 8.14288 23.6628 8.26852 23.5149 8.35742L13.5309 14.3484C13.0685 14.6262 12.5393 14.7731 11.9999 14.7734ZM2.94391 7.50042L11.4999 12.6334C11.651 12.7238 11.8238 12.7716 11.9999 12.7716C12.176 12.7716 12.3488 12.7238 12.4999 12.6334L21.0559 7.50042L12.4999 2.36742C12.3488 2.27703 12.176 2.22929 11.9999 2.22929C11.8238 2.22929 11.651 2.27703 11.4999 2.36742L2.94391 7.50042Z" fill="currentColor"/>
  </symbol>
  <symbol fill="none" viewBox="0 0 24 24" id="layout-fluid">
    <path d="M2 11H13C13.5304 11 14.0391 10.7893 14.4142 10.4142C14.7893 10.0391 15 9.53043 15 9V2C15 1.46957 14.7893 0.960859 14.4142 0.585786C14.0391 0.210714 13.5304 0 13 0L2 0C1.46957 0 0.960859 0.210714 0.585786 0.585786C0.210714 0.960859 0 1.46957 0 2L0 9C0 9.53043 0.210714 10.0391 0.585786 10.4142C0.960859 10.7893 1.46957 11 2 11ZM2 2H13V9H2V2Z" fill="currentColor"/>
    <path d="M22.0002 0H19.0002C18.4697 0 17.961 0.210714 17.5859 0.585786C17.2109 0.960859 17.0002 1.46957 17.0002 2V9C17.0002 9.53043 17.2109 10.0391 17.5859 10.4142C17.961 10.7893 18.4697 11 19.0002 11H22.0002C22.5306 11 23.0393 10.7893 23.4144 10.4142C23.7894 10.0391 24.0002 9.53043 24.0002 9V2C24.0002 1.46957 23.7894 0.960859 23.4144 0.585786C23.0393 0.210714 22.5306 0 22.0002 0V0ZM22.0002 9H19.0002V2H22.0002V9Z" fill="currentColor"/>
    <path d="M5 13.0004H2C1.46957 13.0004 0.960859 13.2111 0.585787 13.5862C0.210714 13.9612 0 14.4699 0 15.0004L0 22.0004C0 22.5308 0.210714 23.0395 0.585787 23.4146C0.960859 23.7896 1.46957 24.0004 2 24.0004H5C5.53043 24.0004 6.03914 23.7896 6.41421 23.4146C6.78929 23.0395 7 22.5308 7 22.0004V15.0004C7 14.4699 6.78929 13.9612 6.41421 13.5862C6.03914 13.2111 5.53043 13.0004 5 13.0004ZM5 22.0004H2V15.0004H5V22.0004Z" fill="currentColor"/>
    <path d="M22 13.0004H11C10.4696 13.0004 9.96086 13.2111 9.58579 13.5862C9.21071 13.9612 9 14.4699 9 15.0004V22.0004C9 22.5308 9.21071 23.0395 9.58579 23.4146C9.96086 23.7896 10.4696 24.0004 11 24.0004H22C22.5304 24.0004 23.0391 23.7896 23.4142 23.4146C23.7893 23.0395 24 22.5308 24 22.0004V15.0004C24 14.4699 23.7893 13.9612 23.4142 13.5862C23.0391 13.2111 22.5304 13.0004 22 13.0004ZM22 22.0004H11V15.0004H22V22.0004Z" fill="currentColor"/>
  </symbol>
  <symbol fill="none" viewBox="0 0 24 24" id="menu-burger">
    <path d="M23 10.9997H1C0.447715 10.9997 0 11.4474 0 11.9997C0 12.552 0.447715 12.9997 1 12.9997H23C23.5523 12.9997 24 12.552 24 11.9997C24 11.4474 23.5523 10.9997 23 10.9997Z" fill="currentColor"/>
    <path d="M23 4.00031H1C0.447715 4.00031 0 4.44802 0 5.0003C0 5.55259 0.447715 6.0003 1 6.0003H23C23.5523 6.0003 24 5.55259 24 5.0003C24 4.44802 23.5523 4.00031 23 4.00031Z" fill="currentColor"/>
    <path d="M23 18H1C0.447715 18 0 18.4477 0 19C0 19.5523 0.447715 20 1 20H23C23.5523 20 24 19.5523 24 19C24 18.4477 23.5523 18 23 18Z" fill="currentColor"/>
  </symbol>
  <symbol fill="none" viewBox="0 0 24 24" id="menu-dots-vertical">
    <path d="M12.0001 4C13.1046 4 14.0001 3.10457 14.0001 2C14.0001 0.89543 13.1046 0 12.0001 0C10.8955 0 10.0001 0.89543 10.0001 2C10.0001 3.10457 10.8955 4 12.0001 4Z" fill="currentColor"/>
    <path d="M12.0001 14.0003C13.1046 14.0003 14.0001 13.1049 14.0001 12.0003C14.0001 10.8957 13.1046 10.0003 12.0001 10.0003C10.8955 10.0003 10.0001 10.8957 10.0001 12.0003C10.0001 13.1049 10.8955 14.0003 12.0001 14.0003Z" fill="currentColor"/>
    <path d="M12.0001 23.9997C13.1046 23.9997 14.0001 23.1043 14.0001 21.9997C14.0001 20.8951 13.1046 19.9997 12.0001 19.9997C10.8955 19.9997 10.0001 20.8951 10.0001 21.9997C10.0001 23.1043 10.8955 23.9997 12.0001 23.9997Z" fill="currentColor"/>
  </symbol>
  <symbol fill="none" viewBox="0 0 24 24" id="menu-dots">
    <path d="M2 14.0003C3.10457 14.0003 4 13.1049 4 12.0003C4 10.8957 3.10457 10.0003 2 10.0003C0.89543 10.0003 0 10.8957 0 12.0003C0 13.1049 0.89543 14.0003 2 14.0003Z" fill="currentColor"/>
    <path d="M12.0001 14.0003C13.1046 14.0003 14.0001 13.1049 14.0001 12.0003C14.0001 10.8957 13.1046 10.0003 12.0001 10.0003C10.8955 10.0003 10.0001 10.8957 10.0001 12.0003C10.0001 13.1049 10.8955 14.0003 12.0001 14.0003Z" fill="currentColor"/>
    <path d="M22 14.0003C23.1045 14.0003 24 13.1049 24 12.0003C24 10.8957 23.1045 10.0003 22 10.0003C20.8954 10.0003 19.9999 10.8957 19.9999 12.0003C19.9999 13.1049 20.8954 14.0003 22 14.0003Z" fill="currentColor"/>
  </symbol>
  <symbol fill="none" viewBox="0 0 24 24" id="picture">
    <path d="M19 0H5C3.67441 0.00158786 2.40356 0.528882 1.46622 1.46622C0.528882 2.40356 0.00158786 3.67441 0 5L0 19C0.00158786 20.3256 0.528882 21.5964 1.46622 22.5338C2.40356 23.4711 3.67441 23.9984 5 24H19C20.3256 23.9984 21.5964 23.4711 22.5338 22.5338C23.4711 21.5964 23.9984 20.3256 24 19V5C23.9984 3.67441 23.4711 2.40356 22.5338 1.46622C21.5964 0.528882 20.3256 0.00158786 19 0V0ZM5 2H19C19.7956 2 20.5587 2.31607 21.1213 2.87868C21.6839 3.44129 22 4.20435 22 5V19C21.9983 19.4455 21.8957 19.8848 21.7 20.285L12.537 11.122C12.0727 10.6576 11.5214 10.2892 10.9147 10.0378C10.308 9.78644 9.65772 9.65707 9.001 9.65707C8.34428 9.65707 7.69399 9.78644 7.08728 10.0378C6.48056 10.2892 5.92931 10.6576 5.465 11.122L2 14.586V5C2 4.20435 2.31607 3.44129 2.87868 2.87868C3.44129 2.31607 4.20435 2 5 2ZM5 22C4.20435 22 3.44129 21.6839 2.87868 21.1213C2.31607 20.5587 2 19.7956 2 19V17.414L6.878 12.536C7.1566 12.2572 7.4874 12.0361 7.85151 11.8852C8.21561 11.7343 8.60587 11.6566 9 11.6566C9.39413 11.6566 9.78439 11.7343 10.1485 11.8852C10.5126 12.0361 10.8434 12.2572 11.122 12.536L20.285 21.7C19.8848 21.8957 19.4455 21.9983 19 22H5Z" fill="currentColor"/>
    <path d="M16.0001 10.4996C16.6924 10.4996 17.369 10.2944 17.9446 9.90978C18.5202 9.52519 18.9688 8.97857 19.2337 8.33903C19.4986 7.69949 19.5679 6.99575 19.4329 6.31682C19.2978 5.63789 18.9645 5.01425 18.475 4.52476C17.9855 4.03528 17.3619 3.70194 16.6829 3.56689C16.004 3.43184 15.3003 3.50115 14.6607 3.76606C14.0212 4.03096 13.4746 4.47957 13.09 5.05514C12.7054 5.63071 12.5001 6.3074 12.5001 6.99964C12.5001 7.92789 12.8689 8.81813 13.5252 9.47451C14.1816 10.1309 15.0719 10.4996 16.0001 10.4996ZM16.0001 5.49964C16.2968 5.49964 16.5868 5.58761 16.8335 5.75243C17.0802 5.91725 17.2724 6.15152 17.3859 6.42561C17.4995 6.6997 17.5292 7.0013 17.4713 7.29227C17.4134 7.58324 17.2706 7.85052 17.0608 8.0603C16.851 8.27007 16.5837 8.41294 16.2928 8.47081C16.0018 8.52869 15.7002 8.49899 15.4261 8.38546C15.152 8.27192 14.9177 8.07966 14.7529 7.83299C14.5881 7.58632 14.5001 7.29631 14.5001 6.99964C14.5001 6.60181 14.6582 6.22028 14.9395 5.93898C15.2208 5.65767 15.6023 5.49964 16.0001 5.49964Z" fill="currentColor"/>
  </symbol>
  <symbol fill="none" viewBox="0 0 24 24" id="plus-small">
    <path d="M17 11H13V7C13 6.73478 12.8946 6.48043 12.7071 6.29289C12.5196 6.10536 12.2652 6 12 6C11.7348 6 11.4804 6.10536 11.2929 6.29289C11.1054 6.48043 11 6.73478 11 7V11H7C6.73478 11 6.48043 11.1054 6.29289 11.2929C6.10536 11.4804 6 11.7348 6 12C6 12.2652 6.10536 12.5196 6.29289 12.7071C6.48043 12.8946 6.73478 13 7 13H11V17C11 17.2652 11.1054 17.5196 11.2929 17.7071C11.4804 17.8946 11.7348 18 12 18C12.2652 18 12.5196 17.8946 12.7071 17.7071C12.8946 17.5196 13 17.2652 13 17V13H17C17.2652 13 17.5196 12.8946 17.7071 12.7071C17.8946 12.5196 18 12.2652 18 12C18 11.7348 17.8946 11.4804 17.7071 11.2929C17.5196 11.1054 17.2652 11 17 11Z" fill="currentColor"/>
  </symbol>
  <symbol fill="none" viewBox="0 0 24 24" id="refresh">
    <path d="M12.0002 1.99997C13.3267 2.00432 14.6392 2.27171 15.8617 2.78666C17.0842 3.30161 18.1924 4.05389 19.1222 4.99997H16.0002C15.735 4.99997 15.4807 5.10533 15.2931 5.29286C15.1056 5.4804 15.0002 5.73476 15.0002 5.99997C15.0002 6.26519 15.1056 6.51954 15.2931 6.70708C15.4807 6.89461 15.735 6.99997 16.0002 6.99997H20.1432C20.6357 6.99971 21.1078 6.80397 21.456 6.45578C21.8042 6.10758 22 5.6354 22.0002 5.14297V0.999971C22.0002 0.734754 21.8949 0.4804 21.7073 0.292864C21.5198 0.105328 21.2654 -2.92115e-05 21.0002 -2.92115e-05C20.735 -2.92115e-05 20.4807 0.105328 20.2931 0.292864C20.1056 0.4804 20.0002 0.734754 20.0002 0.999971V3.07797C18.3474 1.58942 16.3128 0.590381 14.1243 0.19272C11.9358 -0.204941 9.67986 0.0144827 7.60902 0.826418C5.53818 1.63835 3.73425 3.01074 2.39924 4.7899C1.06424 6.56905 0.250875 8.68471 0.050233 10.9C0.0373164 11.0392 0.0535488 11.1797 0.097896 11.3123C0.142243 11.4449 0.213733 11.5669 0.307809 11.6704C0.401886 11.7738 0.516487 11.8566 0.644311 11.9133C0.772135 11.9701 0.910378 11.9996 1.05023 12C1.29482 12.0031 1.53177 11.9148 1.71469 11.7524C1.89762 11.59 2.01335 11.3652 2.03923 11.122C2.26185 8.63272 3.40721 6.31667 5.25031 4.62881C7.09342 2.94094 9.50105 2.00326 12.0002 1.99997Z" fill="currentColor"/>
    <path d="M22.9512 12.0002C22.7066 11.9971 22.4696 12.0854 22.2867 12.2478C22.1038 12.4102 21.988 12.635 21.9622 12.8782C21.7968 14.7814 21.0891 16.5973 19.9228 18.1104C18.7565 19.6235 17.1807 20.7703 15.3823 21.4148C13.5839 22.0592 11.6383 22.1743 9.7765 21.7463C7.91466 21.3183 6.21465 20.3653 4.87815 19.0002H8.00015C8.26537 19.0002 8.51972 18.8949 8.70726 18.7073C8.8948 18.5198 9.00015 18.2654 9.00015 18.0002C9.00015 17.735 8.8948 17.4806 8.70726 17.2931C8.51972 17.1056 8.26537 17.0002 8.00015 17.0002H3.85715C3.61325 17.0001 3.37172 17.048 3.14635 17.1413C2.92099 17.2346 2.71623 17.3714 2.54376 17.5438C2.3713 17.7163 2.23452 17.9211 2.14124 18.1464C2.04796 18.3718 2.00002 18.6133 2.00015 18.8572V23.0002C2.00015 23.2654 2.10551 23.5198 2.29305 23.7073C2.48058 23.8949 2.73494 24.0002 3.00015 24.0002C3.26537 24.0002 3.51972 23.8949 3.70726 23.7073C3.8948 23.5198 4.00015 23.2654 4.00015 23.0002V20.9222C5.65298 22.4108 7.68756 23.4098 9.87605 23.8075C12.0645 24.2051 14.3205 23.9857 16.3914 23.1738C18.4622 22.3618 20.2661 20.9895 21.6011 19.2103C22.9361 17.4311 23.7495 15.3155 23.9502 13.1002C23.9631 12.9609 23.9468 12.8205 23.9025 12.6879C23.8581 12.5552 23.7867 12.4333 23.6926 12.3298C23.5985 12.2263 23.4839 12.1436 23.3561 12.0868C23.2283 12.0301 23.09 12.0006 22.9502 12.0002H22.9512Z" fill="currentColor"/>
  </symbol>
  <symbol fill="none" viewBox="0 0 24 24" id="rotate-right">
    <path d="M21.9619 12.875C21.7691 15.1548 20.8026 17.3002 19.2228 18.9552C17.643 20.6102 15.5449 21.6754 13.2765 21.9739C11.0081 22.2725 8.70575 21.7866 6.75152 20.5967C4.79728 19.4069 3.30857 17.5846 2.53238 15.4324C1.7562 13.2801 1.73918 10.9271 2.48417 8.76383C3.22915 6.60055 4.69135 4.75699 6.62818 3.53901C8.56501 2.32103 10.86 1.80184 13.1325 2.06758C15.405 2.33332 17.5183 3.36801 19.1219 5H15.9999C15.7347 5 15.4803 5.10536 15.2928 5.29289C15.1052 5.48043 14.9999 5.73478 14.9999 6C14.9999 6.26522 15.1052 6.51957 15.2928 6.70711C15.4803 6.89464 15.7347 7 15.9999 7H20.1429C20.6353 6.99974 21.1075 6.804 21.4557 6.45581C21.8039 6.10761 21.9996 5.63543 21.9999 5.143V1C21.9999 0.734784 21.8945 0.48043 21.707 0.292893C21.5195 0.105357 21.2651 0 20.9999 0V0C20.7347 0 20.4803 0.105357 20.2928 0.292893C20.1052 0.48043 19.9999 0.734784 19.9999 1V3.078C17.9886 1.28073 15.4298 0.214484 12.7374 0.0517113C10.0449 -0.111061 7.37634 0.639157 5.16314 2.18103C2.94995 3.72291 1.32158 5.96628 0.541399 8.54832C-0.23878 11.1304 -0.125152 13.9001 0.863907 16.4095C1.85297 18.919 3.65962 21.0214 5.99168 22.3768C8.32373 23.7322 11.0448 24.2614 13.7149 23.8786C16.3849 23.4958 18.8477 22.2236 20.7051 20.2676C22.5624 18.3116 23.7057 15.7863 23.9499 13.1C23.9628 12.9607 23.9466 12.8203 23.9022 12.6877C23.8579 12.555 23.7864 12.4331 23.6923 12.3296C23.5982 12.2261 23.4836 12.1434 23.3558 12.0866C23.228 12.0299 23.0897 12.0004 22.9499 12C22.7059 11.9971 22.4696 12.085 22.287 12.2468C22.1043 12.4085 21.9885 12.6325 21.9619 12.875Z" fill="currentColor"/>
  </symbol>
  <symbol fill="none" viewBox="0 0 24 24" id="settings-sliders">
    <path d="M1 4.75032H3.736C3.95064 5.54005 4.41917 6.23721 5.06933 6.73425C5.71948 7.23129 6.51512 7.50058 7.3335 7.50058C8.15188 7.50058 8.94752 7.23129 9.59767 6.73425C10.2478 6.23721 10.7164 5.54005 10.931 4.75032H23C23.2652 4.75032 23.5196 4.64496 23.7071 4.45743C23.8946 4.26989 24 4.01554 24 3.75032C24 3.4851 23.8946 3.23075 23.7071 3.04321C23.5196 2.85568 23.2652 2.75032 23 2.75032H10.931C10.7164 1.96059 10.2478 1.26343 9.59767 0.766389C8.94752 0.269352 8.15188 6.10352e-05 7.3335 6.10352e-05C6.51512 6.10352e-05 5.71948 0.269352 5.06933 0.766389C4.41917 1.26343 3.95064 1.96059 3.736 2.75032H1C0.734784 2.75032 0.48043 2.85568 0.292893 3.04321C0.105357 3.23075 0 3.4851 0 3.75032C0 4.01554 0.105357 4.26989 0.292893 4.45743C0.48043 4.64496 0.734784 4.75032 1 4.75032ZM7.333 2.00032C7.67912 2.00032 8.01746 2.10296 8.30525 2.29525C8.59303 2.48754 8.81734 2.76085 8.94979 3.08062C9.08224 3.40039 9.1169 3.75226 9.04937 4.09173C8.98185 4.43119 8.81518 4.74301 8.57044 4.98776C8.3257 5.2325 8.01388 5.39917 7.67441 5.46669C7.33494 5.53422 6.98307 5.49956 6.6633 5.36711C6.34353 5.23466 6.07022 5.01035 5.87793 4.72257C5.68564 4.43478 5.583 4.09644 5.583 3.75032C5.58353 3.28635 5.76807 2.84154 6.09615 2.51347C6.42422 2.18539 6.86903 2.00085 7.333 2.00032Z" fill="currentColor"/>
    <path d="M23 10.9991H20.264C20.0497 10.2092 19.5814 9.51177 18.9313 9.01452C18.2812 8.51728 17.4855 8.24786 16.667 8.24786C15.8485 8.24786 15.0528 8.51728 14.4027 9.01452C13.7526 9.51177 13.2843 10.2092 13.07 10.9991H1C0.734784 10.9991 0.48043 11.1044 0.292893 11.292C0.105357 11.4795 0 11.7339 0 11.9991C0 12.2643 0.105357 12.5187 0.292893 12.7062C0.48043 12.8937 0.734784 12.9991 1 12.9991H13.07C13.2843 13.789 13.7526 14.4864 14.4027 14.9837C15.0528 15.4809 15.8485 15.7503 16.667 15.7503C17.4855 15.7503 18.2812 15.4809 18.9313 14.9837C19.5814 14.4864 20.0497 13.789 20.264 12.9991H23C23.2652 12.9991 23.5196 12.8937 23.7071 12.7062C23.8946 12.5187 24 12.2643 24 11.9991C24 11.7339 23.8946 11.4795 23.7071 11.292C23.5196 11.1044 23.2652 10.9991 23 10.9991ZM16.667 13.7491C16.3209 13.7491 15.9825 13.6465 15.6948 13.4542C15.407 13.2619 15.1827 12.9886 15.0502 12.6688C14.9178 12.349 14.8831 11.9971 14.9506 11.6577C15.0181 11.3182 15.1848 11.0064 15.4296 10.7617C15.6743 10.5169 15.9861 10.3502 16.3256 10.2827C16.6651 10.2152 17.0169 10.2499 17.3367 10.3823C17.6565 10.5148 17.9298 10.7391 18.1221 11.0268C18.3144 11.3146 18.417 11.653 18.417 11.9991C18.4165 12.4631 18.2319 12.9079 17.9039 13.2359C17.5758 13.564 17.131 13.7486 16.667 13.7491Z" fill="currentColor"/>
    <path d="M23 19.2503H10.931C10.7164 18.4606 10.2478 17.7634 9.59767 17.2664C8.94752 16.7694 8.15188 16.5001 7.3335 16.5001C6.51512 16.5001 5.71948 16.7694 5.06933 17.2664C4.41917 17.7634 3.95064 18.4606 3.736 19.2503H1C0.734784 19.2503 0.48043 19.3557 0.292893 19.5432C0.105357 19.7307 0 19.9851 0 20.2503C0 20.5155 0.105357 20.7699 0.292893 20.9574C0.48043 21.1449 0.734784 21.2503 1 21.2503H3.736C3.95064 22.04 4.41917 22.7372 5.06933 23.2342C5.71948 23.7313 6.51512 24.0006 7.3335 24.0006C8.15188 24.0006 8.94752 23.7313 9.59767 23.2342C10.2478 22.7372 10.7164 22.04 10.931 21.2503H23C23.2652 21.2503 23.5196 21.1449 23.7071 20.9574C23.8946 20.7699 24 20.5155 24 20.2503C24 19.9851 23.8946 19.7307 23.7071 19.5432C23.5196 19.3557 23.2652 19.2503 23 19.2503ZM7.333 22.0003C6.98688 22.0003 6.64854 21.8977 6.36075 21.7054C6.07297 21.5131 5.84866 21.2398 5.71621 20.92C5.58376 20.6002 5.5491 20.2484 5.61663 19.9089C5.68415 19.5694 5.85082 19.2576 6.09556 19.0129C6.3403 18.7681 6.65213 18.6015 6.99159 18.5339C7.33106 18.4664 7.68293 18.5011 8.0027 18.6335C8.32247 18.766 8.59578 18.9903 8.78807 19.2781C8.98036 19.5658 9.083 19.9042 9.083 20.2503C9.08221 20.7142 8.89758 21.1588 8.56956 21.4869C8.24154 21.8149 7.79689 21.9995 7.333 22.0003Z" fill="currentColor"/>
  </symbol>
  <symbol fill="none" viewBox="0 0 24 24" id="settings">
    <path d="M12.0001 8.00061C11.209 8.00061 10.4356 8.23521 9.77781 8.67473C9.12002 9.11426 8.60733 9.73897 8.30458 10.4699C8.00182 11.2008 7.92261 12.005 8.07695 12.781C8.23129 13.5569 8.61226 14.2696 9.17167 14.829C9.73108 15.3884 10.4438 15.7694 11.2197 15.9238C11.9957 16.0781 12.7999 15.9989 13.5308 15.6961C14.2617 15.3934 14.8864 14.8807 15.326 14.2229C15.7655 13.5651 16.0001 12.7917 16.0001 12.0006C16.0001 10.9397 15.5787 9.92233 14.8285 9.17218C14.0784 8.42204 13.061 8.00061 12.0001 8.00061ZM12.0001 14.0006C11.6045 14.0006 11.2179 13.8833 10.889 13.6635C10.5601 13.4438 10.3037 13.1314 10.1523 12.766C10.001 12.4005 9.96135 11.9984 10.0385 11.6104C10.1157 11.2225 10.3062 10.8661 10.5859 10.5864C10.8656 10.3067 11.222 10.1162 11.6099 10.039C11.9979 9.96187 12.4 10.0015 12.7655 10.1529C13.1309 10.3042 13.4433 10.5606 13.663 10.8895C13.8828 11.2184 14.0001 11.605 14.0001 12.0006C14.0001 12.531 13.7894 13.0398 13.4143 13.4148C13.0392 13.7899 12.5305 14.0006 12.0001 14.0006Z" fill="currentColor"/>
    <path d="M21.294 13.9L20.85 13.644C21.0499 12.5564 21.0499 11.4416 20.85 10.354L21.294 10.098C21.6355 9.90102 21.9348 9.63871 22.1748 9.32606C22.4149 9.01341 22.591 8.65654 22.6932 8.27582C22.7953 7.8951 22.8215 7.49799 22.7702 7.10716C22.7188 6.71633 22.591 6.33944 22.394 5.998C22.1971 5.65656 21.9348 5.35727 21.6221 5.1172C21.3095 4.87714 20.9526 4.70101 20.5719 4.59886C20.1911 4.49672 19.794 4.47056 19.4032 4.52189C19.0124 4.57321 18.6355 4.70102 18.294 4.898L17.849 5.155C17.0086 4.43692 16.0427 3.88025 15 3.513V3C15 2.20435 14.684 1.44129 14.1214 0.87868C13.5588 0.31607 12.7957 0 12 0C11.2044 0 10.4413 0.31607 9.87872 0.87868C9.31611 1.44129 9.00004 2.20435 9.00004 3V3.513C7.95743 3.88157 6.99189 4.4396 6.15204 5.159L5.70504 4.9C5.01548 4.50218 4.19612 4.39457 3.42723 4.60086C2.65833 4.80715 2.00287 5.31044 1.60504 6C1.20722 6.68956 1.09962 7.50892 1.30591 8.27782C1.5122 9.04672 2.01548 9.70218 2.70504 10.1L3.14904 10.356C2.94915 11.4436 2.94915 12.5584 3.14904 13.646L2.70504 13.902C2.01548 14.2998 1.5122 14.9553 1.30591 15.7242C1.09962 16.4931 1.20722 17.3124 1.60504 18.002C2.00287 18.6916 2.65833 19.1948 3.42723 19.4011C4.19612 19.6074 5.01548 19.4998 5.70504 19.102L6.15004 18.845C6.99081 19.5632 7.95702 20.1199 9.00004 20.487V21C9.00004 21.7956 9.31611 22.5587 9.87872 23.1213C10.4413 23.6839 11.2044 24 12 24C12.7957 24 13.5588 23.6839 14.1214 23.1213C14.684 22.5587 15 21.7956 15 21V20.487C16.0427 20.1184 17.0082 19.5604 17.848 18.841L18.295 19.099C18.9846 19.4968 19.804 19.6044 20.5729 19.3981C21.3418 19.1918 21.9972 18.6886 22.395 17.999C22.7929 17.3094 22.9005 16.4901 22.6942 15.7212C22.4879 14.9523 21.9846 14.2968 21.295 13.899L21.294 13.9ZM18.746 10.124C19.0847 11.3511 19.0847 12.6469 18.746 13.874C18.6869 14.0876 18.7004 14.3147 18.7844 14.5198C18.8684 14.7249 19.0181 14.8963 19.21 15.007L20.294 15.633C20.5239 15.7656 20.6916 15.9841 20.7603 16.2403C20.829 16.4966 20.7932 16.7697 20.6605 16.9995C20.5279 17.2293 20.3095 17.397 20.0532 17.4658C19.7969 17.5345 19.5239 17.4986 19.294 17.366L18.208 16.738C18.0159 16.6267 17.7923 16.5826 17.5723 16.6124C17.3523 16.6423 17.1485 16.7445 16.993 16.903C16.103 17.8117 14.9816 18.46 13.75 18.778C13.5351 18.8333 13.3446 18.9585 13.2086 19.1339C13.0727 19.3094 12.9989 19.525 12.999 19.747V21C12.999 21.2652 12.8937 21.5196 12.7062 21.7071C12.5186 21.8946 12.2643 22 11.999 22C11.7338 22 11.4795 21.8946 11.2919 21.7071C11.1044 21.5196 10.999 21.2652 10.999 21V19.748C10.9992 19.526 10.9254 19.3104 10.7894 19.1349C10.6535 18.9595 10.463 18.8343 10.248 18.779C9.01639 18.4597 7.89537 17.81 7.00604 16.9C6.85057 16.7415 6.64678 16.6393 6.4268 16.6094C6.20682 16.5796 5.98315 16.6237 5.79104 16.735L4.70704 17.362C4.59327 17.4287 4.46743 17.4722 4.33677 17.4901C4.2061 17.508 4.0732 17.4998 3.9457 17.4661C3.8182 17.4324 3.69862 17.3738 3.59386 17.2937C3.4891 17.2136 3.40122 17.1135 3.33528 16.9993C3.26934 16.8851 3.22664 16.759 3.20964 16.6282C3.19264 16.4974 3.20168 16.3646 3.23623 16.2373C3.27079 16.11 3.33017 15.9909 3.41098 15.8866C3.49178 15.7824 3.5924 15.6952 3.70704 15.63L4.79104 15.004C4.98299 14.8933 5.13272 14.7219 5.2167 14.5168C5.30069 14.3117 5.31417 14.0846 5.25504 13.871C4.9164 12.6439 4.9164 11.3481 5.25504 10.121C5.31311 9.90788 5.29898 9.68153 5.21486 9.47729C5.13074 9.27305 4.98136 9.10241 4.79004 8.992L3.70604 8.366C3.47623 8.23339 3.30851 8.01492 3.23978 7.75865C3.17105 7.50239 3.20693 7.22931 3.33954 6.9995C3.47215 6.76969 3.69062 6.60197 3.94689 6.53324C4.20316 6.46451 4.47623 6.50039 4.70604 6.633L5.79204 7.261C5.98362 7.37251 6.20682 7.41721 6.42657 7.38807C6.64632 7.35893 6.85015 7.25759 7.00604 7.1C7.89613 6.19134 9.01747 5.54302 10.249 5.225C10.4647 5.16956 10.6556 5.04375 10.7917 4.8675C10.9277 4.69125 11.001 4.47464 11 4.252V3C11 2.73478 11.1054 2.48043 11.2929 2.29289C11.4805 2.10536 11.7348 2 12 2C12.2653 2 12.5196 2.10536 12.7071 2.29289C12.8947 2.48043 13 2.73478 13 3V4.252C12.9999 4.47396 13.0737 4.68964 13.2096 4.86508C13.3456 5.04052 13.5361 5.16573 13.751 5.221C14.9831 5.54015 16.1044 6.18988 16.994 7.1C17.1495 7.25847 17.3533 7.36069 17.5733 7.39057C17.7933 7.42044 18.0169 7.37626 18.209 7.265L19.293 6.638C19.4068 6.5713 19.5327 6.52777 19.6633 6.5099C19.794 6.49204 19.9269 6.50019 20.0544 6.5339C20.1819 6.56761 20.3015 6.6262 20.4062 6.70631C20.511 6.78642 20.5989 6.88646 20.6648 7.00067C20.7307 7.11488 20.7734 7.24101 20.7904 7.37179C20.8074 7.50257 20.7984 7.63542 20.7639 7.76269C20.7293 7.88997 20.6699 8.00915 20.5891 8.11337C20.5083 8.2176 20.4077 8.30482 20.293 8.37L19.209 8.996C19.0181 9.10671 18.8691 9.27748 18.7854 9.48169C18.7016 9.68591 18.6878 9.9121 18.746 10.125V10.124Z" fill="currentColor"/>
  </symbol>
  <symbol fill="none" viewBox="0 0 24 24" id="sign-in-alt">
    <path d="M18.9 -0.000407124H5.1C3.76103 -0.0124059 2.472 0.50734 1.51584 1.44475C0.559682 2.38216 0.0145152 3.66065 0 4.99959L0 7.99959C0 8.26481 0.105357 8.51916 0.292893 8.7067C0.48043 8.89424 0.734784 8.99959 1 8.99959C1.26522 8.99959 1.51957 8.89424 1.70711 8.7067C1.89464 8.51916 2 8.26481 2 7.99959V4.99959C2.01421 4.19099 2.34856 3.42104 2.92971 2.85863C3.51087 2.29622 4.29137 1.98729 5.1 1.99959H18.9C19.7086 1.98729 20.4891 2.29622 21.0703 2.85863C21.6514 3.42104 21.9858 4.19099 22 4.99959V18.9996C21.9858 19.8082 21.6514 20.5782 21.0703 21.1406C20.4891 21.703 19.7086 22.0119 18.9 21.9996H5.1C4.29137 22.0119 3.51087 21.703 2.92971 21.1406C2.34856 20.5782 2.01421 19.8082 2 18.9996V15.9996C2 15.7344 1.89464 15.48 1.70711 15.2925C1.51957 15.1049 1.26522 14.9996 1 14.9996C0.734784 14.9996 0.48043 15.1049 0.292893 15.2925C0.105357 15.48 0 15.7344 0 15.9996L0 18.9996C0.0145152 20.3385 0.559682 21.617 1.51584 22.5544C2.472 23.4918 3.76103 24.0116 5.1 23.9996H18.9C20.239 24.0116 21.528 23.4918 22.4842 22.5544C23.4403 21.617 23.9855 20.3385 24 18.9996V4.99959C23.9855 3.66065 23.4403 2.38216 22.4842 1.44475C21.528 0.50734 20.239 -0.0124059 18.9 -0.000407124Z" fill="currentColor"/>
    <path d="M3 11.9992C3 12.2644 3.10536 12.5188 3.29289 12.7063C3.48043 12.8938 3.73478 12.9992 4 12.9992L17.188 12.9692L12.865 17.2922C12.7695 17.3844 12.6933 17.4948 12.6409 17.6168C12.5885 17.7388 12.5609 17.87 12.5597 18.0028C12.5586 18.1356 12.5839 18.2672 12.6342 18.3901C12.6845 18.513 12.7587 18.6247 12.8526 18.7186C12.9465 18.8125 13.0581 18.8867 13.181 18.937C13.3039 18.9873 13.4356 19.0126 13.5684 19.0114C13.7012 19.0103 13.8324 18.9827 13.9544 18.9303C14.0764 18.8779 14.1868 18.8017 14.279 18.7062L18.865 14.1202C19.4274 13.5576 19.7434 12.7947 19.7434 11.9992C19.7434 11.2037 19.4274 10.4408 18.865 9.87819L14.281 5.29219C14.0924 5.11003 13.8398 5.00923 13.5776 5.01151C13.3154 5.01379 13.0646 5.11896 12.8792 5.30437C12.6938 5.48978 12.5886 5.74059 12.5863 6.00279C12.584 6.26498 12.6848 6.51758 12.867 6.70619L17.129 10.9692L4 10.9992C3.73478 10.9992 3.48043 11.1045 3.29289 11.2921C3.10536 11.4796 3 11.734 3 11.9992Z" fill="currentColor"/>
  </symbol>
  <symbol fill="none" viewBox="0 0 24 24" id="sign-out">
    <path d="M22.8289 9.17119L18.9499 5.29219C18.7613 5.11003 18.5087 5.00923 18.2465 5.01151C17.9843 5.01379 17.7334 5.11896 17.548 5.30437C17.3626 5.48978 17.2575 5.74059 17.2552 6.00279C17.2529 6.26498 17.3537 6.51758 17.5359 6.70619L21.4149 10.5852C21.5301 10.7027 21.6308 10.8337 21.7149 10.9752C21.6999 10.9752 21.6879 10.9672 21.6729 10.9672L5.98886 10.9992C5.72364 10.9992 5.46929 11.1045 5.28175 11.2921C5.09422 11.4796 4.98886 11.734 4.98886 11.9992C4.98886 12.2644 5.09422 12.5188 5.28175 12.7063C5.46929 12.8938 5.72364 12.9992 5.98886 12.9992L21.6669 12.9672C21.6949 12.9672 21.7179 12.9532 21.7449 12.9512C21.6562 13.1203 21.5437 13.2759 21.4109 13.4132L17.5319 17.2922C17.4363 17.3844 17.3602 17.4948 17.3078 17.6168C17.2554 17.7388 17.2278 17.87 17.2266 18.0028C17.2255 18.1356 17.2508 18.2672 17.301 18.3901C17.3513 18.513 17.4256 18.6247 17.5195 18.7186C17.6134 18.8125 17.725 18.8867 17.8479 18.937C17.9708 18.9873 18.1025 19.0126 18.2353 19.0114C18.368 19.0103 18.4993 18.9827 18.6213 18.9303C18.7433 18.8779 18.8536 18.8017 18.9459 18.7062L22.8249 14.8272C23.5747 14.0771 23.996 13.0598 23.996 11.9992C23.996 10.9385 23.5747 9.9213 22.8249 9.17119H22.8289Z" fill="currentColor"/>
    <path d="M7 22H5C4.20435 22 3.44129 21.6839 2.87868 21.1213C2.31607 20.5587 2 19.7956 2 19V5C2 4.20435 2.31607 3.44129 2.87868 2.87868C3.44129 2.31607 4.20435 2 5 2H7C7.26522 2 7.51957 1.89464 7.70711 1.70711C7.89464 1.51957 8 1.26522 8 1C8 0.734784 7.89464 0.48043 7.70711 0.292893C7.51957 0.105357 7.26522 0 7 0L5 0C3.67441 0.00158786 2.40356 0.528882 1.46622 1.46622C0.528882 2.40356 0.00158786 3.67441 0 5L0 19C0.00158786 20.3256 0.528882 21.5964 1.46622 22.5338C2.40356 23.4711 3.67441 23.9984 5 24H7C7.26522 24 7.51957 23.8946 7.70711 23.7071C7.89464 23.5196 8 23.2652 8 23C8 22.7348 7.89464 22.4804 7.70711 22.2929C7.51957 22.1054 7.26522 22 7 22Z" fill="currentColor"/>
  </symbol>
  <symbol fill="none" viewBox="0 0 24 24" id="spinner-alt">
    <path d="M13 1V3C13 3.26522 12.8946 3.51957 12.7071 3.70711C12.5196 3.89464 12.2652 4 12 4C11.7348 4 11.4804 3.89464 11.2929 3.70711C11.1054 3.51957 11 3.26522 11 3V1C11 0.734784 11.1054 0.48043 11.2929 0.292893C11.4804 0.105357 11.7348 0 12 0C12.2652 0 12.5196 0.105357 12.7071 0.292893C12.8946 0.48043 13 0.734784 13 1ZM12 20C11.7348 20 11.4804 20.1054 11.2929 20.2929C11.1054 20.4804 11 20.7348 11 21V23C11 23.2652 11.1054 23.5196 11.2929 23.7071C11.4804 23.8946 11.7348 24 12 24C12.2652 24 12.5196 23.8946 12.7071 23.7071C12.8946 23.5196 13 23.2652 13 23V21C13 20.7348 12.8946 20.4804 12.7071 20.2929C12.5196 20.1054 12.2652 20 12 20ZM4 12C4 11.7348 3.89464 11.4804 3.70711 11.2929C3.51957 11.1054 3.26522 11 3 11H1C0.734784 11 0.48043 11.1054 0.292893 11.2929C0.105357 11.4804 0 11.7348 0 12C0 12.2652 0.105357 12.5196 0.292893 12.7071C0.48043 12.8946 0.734784 13 1 13H3C3.26522 13 3.51957 12.8946 3.70711 12.7071C3.89464 12.5196 4 12.2652 4 12ZM23 11H21C20.7348 11 20.4804 11.1054 20.2929 11.2929C20.1054 11.4804 20 11.7348 20 12C20 12.2652 20.1054 12.5196 20.2929 12.7071C20.4804 12.8946 20.7348 13 21 13H23C23.2652 13 23.5196 12.8946 23.7071 12.7071C23.8946 12.5196 24 12.2652 24 12C24 11.7348 23.8946 11.4804 23.7071 11.2929C23.5196 11.1054 23.2652 11 23 11ZM18.018 1.618C17.9044 1.5521 17.7788 1.50924 17.6486 1.49187C17.5184 1.4745 17.386 1.48296 17.2591 1.51677C17.1321 1.55057 17.0131 1.60906 16.9088 1.68888C16.8044 1.76871 16.7168 1.86831 16.651 1.982L15.651 3.713C15.5183 3.94256 15.4822 4.21541 15.5507 4.47157C15.6191 4.72773 15.7865 4.94622 16.016 5.079C16.1677 5.1677 16.3403 5.21431 16.516 5.214C16.6915 5.214 16.864 5.16779 17.016 5.08002C17.168 4.99225 17.2942 4.86602 17.382 4.714L18.382 2.983C18.5145 2.75365 18.5505 2.48113 18.4823 2.22523C18.414 1.96932 18.2471 1.75094 18.018 1.618ZM7.987 18.921C7.75756 18.7882 7.4848 18.752 7.22865 18.8202C6.97251 18.8885 6.75395 19.0557 6.621 19.285L5.621 21.016C5.48823 21.2454 5.45199 21.5182 5.52025 21.7743C5.5885 22.0305 5.75567 22.2491 5.985 22.382C6.13672 22.4706 6.3093 22.5172 6.485 22.517C6.6607 22.5172 6.83335 22.471 6.98555 22.3833C7.13776 22.2955 7.26415 22.1692 7.352 22.017L8.352 20.286C8.48437 20.0565 8.52028 19.7839 8.45185 19.528C8.38341 19.2721 8.21623 19.0538 7.987 18.921ZM4.715 6.621L2.984 5.621C2.75505 5.49779 2.48712 5.4686 2.23701 5.5396C1.9869 5.61061 1.77428 5.77623 1.64422 6.00136C1.51417 6.22649 1.4769 6.49342 1.54033 6.74555C1.60376 6.99769 1.7629 7.21521 1.984 7.352L3.715 8.352C3.94395 8.47521 4.21188 8.5044 4.46199 8.4334C4.7121 8.36239 4.92472 8.19677 5.05478 7.97164C5.18483 7.74651 5.2221 7.47958 5.15867 7.22745C5.09524 6.97531 4.9361 6.75779 4.715 6.621ZM22.015 16.651L20.284 15.651C20.0551 15.5278 19.7871 15.4986 19.537 15.5696C19.2869 15.6406 19.0743 15.8062 18.9442 16.0314C18.8142 16.2565 18.7769 16.5234 18.8403 16.7756C18.9038 17.0277 19.0629 17.2452 19.284 17.382L21.015 18.382C21.1667 18.4707 21.3393 18.5173 21.515 18.517C21.7351 18.517 21.9491 18.4443 22.1237 18.3103C22.2984 18.1763 22.4239 17.9884 22.4809 17.7758C22.5379 17.5632 22.5231 17.3377 22.4388 17.1343C22.3546 16.931 22.2056 16.7611 22.015 16.651ZM7.349 1.982C7.21221 1.7609 6.99469 1.60176 6.74255 1.53833C6.49042 1.4749 6.22349 1.51217 5.99836 1.64222C5.77323 1.77228 5.60761 1.9849 5.5366 2.23501C5.4656 2.48512 5.49479 2.75305 5.618 2.982L6.618 4.713C6.70577 4.86502 6.832 4.99125 6.98401 5.07902C7.13603 5.16679 7.30847 5.213 7.484 5.213C7.65971 5.21331 7.83232 5.1667 7.984 5.078C8.2135 4.94522 8.38088 4.72673 8.44933 4.47057C8.51777 4.21441 8.48169 3.94156 8.349 3.712L7.349 1.982ZM17.379 19.282C17.2422 19.0609 17.0247 18.9018 16.7726 18.8383C16.5204 18.7749 16.2535 18.8122 16.0284 18.9422C15.8032 19.0723 15.6376 19.2849 15.5666 19.535C15.4956 19.7851 15.5248 20.0531 15.648 20.282L16.648 22.013C16.7848 22.2341 17.0023 22.3932 17.2544 22.4567C17.5066 22.5201 17.7735 22.4828 17.9986 22.3528C18.2238 22.2227 18.3894 22.0101 18.4604 21.76C18.5314 21.5099 18.5022 21.2419 18.379 21.013L17.379 19.282ZM19.787 8.482C19.9625 8.48199 20.135 8.43578 20.287 8.348L22.018 7.348C22.2391 7.21121 22.3982 6.99369 22.4617 6.74155C22.5251 6.48942 22.4878 6.22249 22.3578 5.99736C22.2277 5.77223 22.0151 5.60661 21.765 5.5356C21.5149 5.4646 21.2469 5.49379 21.018 5.617L19.287 6.617C19.0969 6.72729 18.9484 6.89716 18.8645 7.10033C18.7806 7.30349 18.766 7.52864 18.8229 7.74095C18.8798 7.95326 19.0051 8.1409 19.1794 8.27486C19.3536 8.40881 19.5672 8.48161 19.787 8.482ZM3.713 15.648L1.982 16.648C1.79137 16.7581 1.64239 16.928 1.55815 17.1313C1.47392 17.3347 1.45915 17.5602 1.51612 17.7728C1.57309 17.9854 1.69863 18.1733 1.87327 18.3073C2.0479 18.4413 2.26187 18.514 2.482 18.514C2.65771 18.5143 2.83032 18.4677 2.982 18.379L4.713 17.379C4.9341 17.2422 5.09324 17.0247 5.15667 16.7726C5.2201 16.5204 5.18283 16.2535 5.05278 16.0284C4.92272 15.8032 4.7101 15.6376 4.45999 15.5666C4.20988 15.4956 3.94195 15.5248 3.713 15.648Z" fill="currentColor"/>
  </symbol>
  <symbol fill="none" viewBox="0 0 24 24" id="spinner">
    <path d="M12 23.9999C9.86522 23.9995 7.76922 23.4295 5.92818 22.3489C4.08713 21.2682 2.56769 19.716 1.52656 17.8524C0.485432 15.9887 -0.039689 13.881 0.00535817 11.7467C0.0504054 9.61243 0.663989 7.52879 1.78283 5.71071C2.90166 3.89262 4.48525 2.40591 6.37025 1.40392C8.25525 0.401925 10.3734 -0.0790801 12.5063 0.010514C14.6392 0.100108 16.7096 0.757058 18.5039 1.91361C20.2982 3.07016 21.7516 4.68443 22.714 6.58994C22.7779 6.7076 22.8176 6.8369 22.8306 6.97018C22.8436 7.10345 22.8297 7.23798 22.7898 7.36579C22.7498 7.49359 22.6846 7.61207 22.598 7.7142C22.5113 7.81632 22.4051 7.90001 22.2855 7.96029C22.166 8.02058 22.0355 8.05624 21.9019 8.06515C21.7683 8.07407 21.6342 8.05606 21.5077 8.01219C21.3812 7.96832 21.2648 7.89949 21.1654 7.80978C21.066 7.72007 20.9856 7.61131 20.929 7.48994C19.9155 5.48316 18.2553 3.87645 16.2164 2.92915C14.1775 1.98185 11.8789 1.74923 9.69159 2.26883C7.50426 2.78844 5.55584 4.02996 4.16081 5.79299C2.76579 7.55603 2.00555 9.73772 2.00281 11.9859C2.00008 14.2341 2.755 16.4176 4.14573 18.1841C5.53646 19.9505 7.48186 21.1968 9.66792 21.7217C11.854 22.2466 14.1531 22.0196 16.1943 21.0772C18.2355 20.1349 19.8996 18.5323 20.918 16.5279C21.043 16.2999 21.2519 16.1295 21.5004 16.0529C21.7489 15.9763 22.0174 15.9996 22.2491 16.1177C22.4808 16.2358 22.6573 16.4395 22.7413 16.6856C22.8253 16.9317 22.8101 17.2008 22.699 17.4359C21.6995 19.4143 20.1696 21.0759 18.2803 22.235C16.3909 23.3942 14.2165 24.0052 12 23.9999Z" fill="currentColor"/>
  </symbol>
  <symbol fill="none" viewBox="0 0 24 24" id="tool-marquee">
    <path d="M24 18V19C23.9984 20.3256 23.4711 21.5964 22.5338 22.5338C21.5964 23.4711 20.3256 23.9984 19 24H18C17.7348 24 17.4804 23.8946 17.2929 23.7071C17.1054 23.5196 17 23.2652 17 23C17 22.7348 17.1054 22.4804 17.2929 22.2929C17.4804 22.1054 17.7348 22 18 22H19C19.7956 22 20.5587 21.6839 21.1213 21.1213C21.6839 20.5587 22 19.7956 22 19V18C22 17.7348 22.1054 17.4804 22.2929 17.2929C22.4804 17.1054 22.7348 17 23 17C23.2652 17 23.5196 17.1054 23.7071 17.2929C23.8946 17.4804 24 17.7348 24 18ZM19 0H18C17.7348 0 17.4804 0.105357 17.2929 0.292893C17.1054 0.48043 17 0.734784 17 1C17 1.26522 17.1054 1.51957 17.2929 1.70711C17.4804 1.89464 17.7348 2 18 2H19C19.7956 2 20.5587 2.31607 21.1213 2.87868C21.6839 3.44129 22 4.20435 22 5V6C22 6.26522 22.1054 6.51957 22.2929 6.70711C22.4804 6.89464 22.7348 7 23 7C23.2652 7 23.5196 6.89464 23.7071 6.70711C23.8946 6.51957 24 6.26522 24 6V5C23.9984 3.67441 23.4711 2.40356 22.5338 1.46622C21.5964 0.528882 20.3256 0.00158786 19 0V0ZM23 9C22.7348 9 22.4804 9.10536 22.2929 9.29289C22.1054 9.48043 22 9.73478 22 10V14C22 14.2652 22.1054 14.5196 22.2929 14.7071C22.4804 14.8946 22.7348 15 23 15C23.2652 15 23.5196 14.8946 23.7071 14.7071C23.8946 14.5196 24 14.2652 24 14V10C24 9.73478 23.8946 9.48043 23.7071 9.29289C23.5196 9.10536 23.2652 9 23 9ZM6 22H5C4.20435 22 3.44129 21.6839 2.87868 21.1213C2.31607 20.5587 2 19.7956 2 19V18C2 17.7348 1.89464 17.4804 1.70711 17.2929C1.51957 17.1054 1.26522 17 1 17C0.734784 17 0.48043 17.1054 0.292893 17.2929C0.105357 17.4804 0 17.7348 0 18L0 19C0.00158786 20.3256 0.528882 21.5964 1.46622 22.5338C2.40356 23.4711 3.67441 23.9984 5 24H6C6.26522 24 6.51957 23.8946 6.70711 23.7071C6.89464 23.5196 7 23.2652 7 23C7 22.7348 6.89464 22.4804 6.70711 22.2929C6.51957 22.1054 6.26522 22 6 22ZM6 0H5C3.67441 0.00158786 2.40356 0.528882 1.46622 1.46622C0.528882 2.40356 0.00158786 3.67441 0 5L0 6C0 6.26522 0.105357 6.51957 0.292893 6.70711C0.48043 6.89464 0.734784 7 1 7C1.26522 7 1.51957 6.89464 1.70711 6.70711C1.89464 6.51957 2 6.26522 2 6V5C2 4.20435 2.31607 3.44129 2.87868 2.87868C3.44129 2.31607 4.20435 2 5 2H6C6.26522 2 6.51957 1.89464 6.70711 1.70711C6.89464 1.51957 7 1.26522 7 1C7 0.734784 6.89464 0.48043 6.70711 0.292893C6.51957 0.105357 6.26522 0 6 0V0ZM1 15C1.26522 15 1.51957 14.8946 1.70711 14.7071C1.89464 14.5196 2 14.2652 2 14V10C2 9.73478 1.89464 9.48043 1.70711 9.29289C1.51957 9.10536 1.26522 9 1 9C0.734784 9 0.48043 9.10536 0.292893 9.29289C0.105357 9.48043 0 9.73478 0 10L0 14C0 14.2652 0.105357 14.5196 0.292893 14.7071C0.48043 14.8946 0.734784 15 1 15ZM10 2H13.932C14.1972 2 14.4516 1.89464 14.6391 1.70711C14.8266 1.51957 14.932 1.26522 14.932 1C14.932 0.734784 14.8266 0.48043 14.6391 0.292893C14.4516 0.105357 14.1972 0 13.932 0L10 0C9.73478 0 9.48043 0.105357 9.29289 0.292893C9.10536 0.48043 9 0.734784 9 1C9 1.26522 9.10536 1.51957 9.29289 1.70711C9.48043 1.89464 9.73478 2 10 2ZM14 22H10C9.73478 22 9.48043 22.1054 9.29289 22.2929C9.10536 22.4804 9 22.7348 9 23C9 23.2652 9.10536 23.5196 9.29289 23.7071C9.48043 23.8946 9.73478 24 10 24H14C14.2652 24 14.5196 23.8946 14.7071 23.7071C14.8946 23.5196 15 23.2652 15 23C15 22.7348 14.8946 22.4804 14.7071 22.2929C14.5196 22.1054 14.2652 22 14 22Z" fill="currentColor"/>
  </symbol>
  <symbol fill="none" viewBox="0 0 24 24" id="trash">
    <path d="M20.9999 4H17.8999C17.6678 2.87141 17.0537 1.85735 16.1611 1.12872C15.2686 0.40009 14.1521 0.00145452 12.9999 0L10.9999 0C9.84767 0.00145452 8.7312 0.40009 7.83863 1.12872C6.94606 1.85735 6.33197 2.87141 6.09988 4H2.99988C2.73466 4 2.48031 4.10536 2.29277 4.29289C2.10523 4.48043 1.99988 4.73478 1.99988 5C1.99988 5.26522 2.10523 5.51957 2.29277 5.70711C2.48031 5.89464 2.73466 6 2.99988 6H3.99988V19C4.00147 20.3256 4.52876 21.5964 5.4661 22.5338C6.40344 23.4711 7.67428 23.9984 8.99988 24H14.9999C16.3255 23.9984 17.5963 23.4711 18.5337 22.5338C19.471 21.5964 19.9983 20.3256 19.9999 19V6H20.9999C21.2651 6 21.5194 5.89464 21.707 5.70711C21.8945 5.51957 21.9999 5.26522 21.9999 5C21.9999 4.73478 21.8945 4.48043 21.707 4.29289C21.5194 4.10536 21.2651 4 20.9999 4ZM10.9999 2H12.9999C13.6202 2.00076 14.225 2.19338 14.7315 2.55144C15.238 2.90951 15.6213 3.41549 15.8289 4H8.17088C8.37846 3.41549 8.76178 2.90951 9.26826 2.55144C9.77475 2.19338 10.3796 2.00076 10.9999 2ZM17.9999 19C17.9999 19.7956 17.6838 20.5587 17.1212 21.1213C16.5586 21.6839 15.7955 22 14.9999 22H8.99988C8.20423 22 7.44117 21.6839 6.87856 21.1213C6.31595 20.5587 5.99988 19.7956 5.99988 19V6H17.9999V19Z" fill="currentColor"/>
    <path d="M10 17.9994C10.2652 17.9994 10.5196 17.894 10.7071 17.7065C10.8946 17.5189 11 17.2646 11 16.9994V10.9994C11 10.7342 10.8946 10.4798 10.7071 10.2923C10.5196 10.1047 10.2652 9.99939 10 9.99939C9.73478 9.99939 9.48043 10.1047 9.29289 10.2923C9.10536 10.4798 9 10.7342 9 10.9994V16.9994C9 17.2646 9.10536 17.5189 9.29289 17.7065C9.48043 17.894 9.73478 17.9994 10 17.9994Z" fill="currentColor"/>
    <path d="M13.9999 17.9994C14.2651 17.9994 14.5195 17.894 14.707 17.7065C14.8945 17.5189 14.9999 17.2646 14.9999 16.9994V10.9994C14.9999 10.7342 14.8945 10.4798 14.707 10.2923C14.5195 10.1047 14.2651 9.99939 13.9999 9.99939C13.7347 9.99939 13.4803 10.1047 13.2928 10.2923C13.1052 10.4798 12.9999 10.7342 12.9999 10.9994V16.9994C12.9999 17.2646 13.1052 17.5189 13.2928 17.7065C13.4803 17.894 13.7347 17.9994 13.9999 17.9994Z" fill="currentColor"/>
  </symbol>
  <symbol fill="none" viewBox="0 0 24 24" id="user-add">
    <path d="M22.9998 11.0006H20.9998V9.00061C20.9998 8.73539 20.8945 8.48104 20.7069 8.2935C20.5194 8.10597 20.2651 8.00061 19.9998 8.00061C19.7346 8.00061 19.4803 8.10597 19.2927 8.2935C19.1052 8.48104 18.9998 8.73539 18.9998 9.00061V11.0006H16.9998C16.7346 11.0006 16.4803 11.106 16.2927 11.2935C16.1052 11.481 15.9998 11.7354 15.9998 12.0006C15.9998 12.2658 16.1052 12.5202 16.2927 12.7077C16.4803 12.8952 16.7346 13.0006 16.9998 13.0006H18.9998V15.0006C18.9998 15.2658 19.1052 15.5202 19.2927 15.7077C19.4803 15.8952 19.7346 16.0006 19.9998 16.0006C20.2651 16.0006 20.5194 15.8952 20.7069 15.7077C20.8945 15.5202 20.9998 15.2658 20.9998 15.0006V13.0006H22.9998C23.265 13.0006 23.5194 12.8952 23.7069 12.7077C23.8945 12.5202 23.9998 12.2658 23.9998 12.0006C23.9998 11.7354 23.8945 11.481 23.7069 11.2935C23.5194 11.106 23.265 11.0006 22.9998 11.0006Z" fill="currentColor"/>
    <path d="M9 11.9999C10.1867 11.9999 11.3467 11.648 12.3334 10.9888C13.3201 10.3295 14.0892 9.3924 14.5433 8.29604C14.9974 7.19969 15.1162 5.99329 14.8847 4.8294C14.6532 3.66551 14.0818 2.59642 13.2426 1.7573C12.4035 0.918186 11.3344 0.346741 10.1705 0.11523C9.00666 -0.116281 7.80026 0.00253868 6.7039 0.456664C5.60754 0.91079 4.67047 1.67983 4.01118 2.66652C3.35189 3.65321 3 4.81325 3 5.99994C3.00159 7.59075 3.63424 9.11595 4.75911 10.2408C5.88399 11.3657 7.40919 11.9984 9 11.9999ZM9 1.99994C9.79113 1.99994 10.5645 2.23454 11.2223 2.67406C11.8801 3.11359 12.3928 3.7383 12.6955 4.46921C12.9983 5.20011 13.0775 6.00438 12.9231 6.7803C12.7688 7.55623 12.3878 8.26896 11.8284 8.82837C11.269 9.38778 10.5563 9.76874 9.78036 9.92308C9.00444 10.0774 8.20017 9.99821 7.46927 9.69546C6.73836 9.39271 6.11365 8.88002 5.67412 8.22222C5.2346 7.56443 5 6.79107 5 5.99994C5 4.93908 5.42143 3.92166 6.17157 3.17151C6.92172 2.42137 7.93913 1.99994 9 1.99994Z" fill="currentColor"/>
    <path d="M9 14.0006C6.61386 14.0033 4.32622 14.9523 2.63896 16.6396C0.951708 18.3268 0.00264685 20.6145 0 23.0006C0 23.2658 0.105357 23.5202 0.292893 23.7077C0.48043 23.8953 0.734784 24.0006 1 24.0006C1.26522 24.0006 1.51957 23.8953 1.70711 23.7077C1.89464 23.5202 2 23.2658 2 23.0006C2 21.1441 2.7375 19.3636 4.05025 18.0509C5.36301 16.7381 7.14348 16.0006 9 16.0006C10.8565 16.0006 12.637 16.7381 13.9497 18.0509C15.2625 19.3636 16 21.1441 16 23.0006C16 23.2658 16.1054 23.5202 16.2929 23.7077C16.4804 23.8953 16.7348 24.0006 17 24.0006C17.2652 24.0006 17.5196 23.8953 17.7071 23.7077C17.8946 23.5202 18 23.2658 18 23.0006C17.9974 20.6145 17.0483 18.3268 15.361 16.6396C13.6738 14.9523 11.3861 14.0033 9 14.0006Z" fill="currentColor"/>
  </symbol>
  <symbol fill="none" viewBox="0 0 24 24" id="user-delete">
    <path d="M17 24C16.7348 24 16.4804 23.8946 16.2929 23.7071C16.1054 23.5196 16 23.2652 16 23C16 21.1435 15.2625 19.363 13.9497 18.0503C12.637 16.7375 10.8565 16 9 16C7.14348 16 5.36301 16.7375 4.05025 18.0503C2.7375 19.363 2 21.1435 2 23C2 23.2652 1.89464 23.5196 1.70711 23.7071C1.51957 23.8946 1.26522 24 1 24C0.734784 24 0.48043 23.8946 0.292893 23.7071C0.105357 23.5196 0 23.2652 0 23C0 20.6131 0.948212 18.3239 2.63604 16.636C4.32387 14.9482 6.61305 14 9 14C11.3869 14 13.6761 14.9482 15.364 16.636C17.0518 18.3239 18 20.6131 18 23C18 23.2652 17.8946 23.5196 17.7071 23.7071C17.5196 23.8946 17.2652 24 17 24ZM23 13H17C16.7348 13 16.4804 12.8946 16.2929 12.7071C16.1054 12.5196 16 12.2652 16 12C16 11.7348 16.1054 11.4804 16.2929 11.2929C16.4804 11.1054 16.7348 11 17 11H23C23.2652 11 23.5196 11.1054 23.7071 11.2929C23.8946 11.4804 24 11.7348 24 12C24 12.2652 23.8946 12.5196 23.7071 12.7071C23.5196 12.8946 23.2652 13 23 13ZM9 12C7.81331 12 6.65327 11.6481 5.66658 10.9888C4.67988 10.3295 3.91085 9.39246 3.45672 8.2961C3.0026 7.19975 2.88378 5.99335 3.11529 4.82946C3.3468 3.66558 3.91824 2.59648 4.75736 1.75736C5.59647 0.918247 6.66557 0.346802 7.82946 0.115291C8.99334 -0.11622 10.1997 0.00259972 11.2961 0.456726C12.3925 0.910851 13.3295 1.67989 13.9888 2.66658C14.6481 3.65328 15 4.81332 15 6C14.9984 7.59082 14.3658 9.11602 13.2409 10.2409C12.116 11.3658 10.5908 11.9984 9 12ZM9 2C8.20887 2 7.43552 2.2346 6.77772 2.67412C6.11992 3.11365 5.60723 3.73837 5.30448 4.46927C5.00173 5.20017 4.92252 6.00444 5.07686 6.78036C5.2312 7.55629 5.61216 8.26902 6.17157 8.82843C6.73098 9.38784 7.44371 9.7688 8.21964 9.92315C8.99556 10.0775 9.79983 9.99827 10.5307 9.69552C11.2616 9.39277 11.8864 8.88008 12.3259 8.22228C12.7654 7.56449 13 6.79113 13 6C13 4.93914 12.5786 3.92172 11.8284 3.17158C11.0783 2.42143 10.0609 2 9 2Z" fill="currentColor"/>
  </symbol>
  <symbol fill="none" viewBox="0 0 24 24" id="user-remove">
    <path d="M9 12C10.1867 12 11.3467 11.6481 12.3334 10.9888C13.3201 10.3295 14.0892 9.39246 14.5433 8.2961C14.9974 7.19975 15.1162 5.99335 14.8847 4.82946C14.6532 3.66558 14.0818 2.59648 13.2426 1.75736C12.4035 0.918247 11.3344 0.346802 10.1705 0.115291C9.00666 -0.11622 7.80026 0.00259972 6.7039 0.456726C5.60754 0.910851 4.67047 1.67989 4.01118 2.66658C3.35189 3.65328 3 4.81332 3 6C3.00159 7.59082 3.63424 9.11602 4.75911 10.2409C5.88399 11.3658 7.40919 11.9984 9 12ZM9 2C9.79113 2 10.5645 2.2346 11.2223 2.67412C11.8801 3.11365 12.3928 3.73837 12.6955 4.46927C12.9983 5.20017 13.0775 6.00444 12.9231 6.78036C12.7688 7.55629 12.3878 8.26902 11.8284 8.82843C11.269 9.38784 10.5563 9.7688 9.78036 9.92315C9.00444 10.0775 8.20017 9.99827 7.46927 9.69552C6.73836 9.39277 6.11365 8.88008 5.67412 8.22228C5.2346 7.56449 5 6.79113 5 6C5 4.93914 5.42143 3.92172 6.17157 3.17158C6.92172 2.42143 7.93914 2 9 2ZM18 23C18 23.2652 17.8946 23.5196 17.7071 23.7071C17.5196 23.8946 17.2652 24 17 24C16.7348 24 16.4804 23.8946 16.2929 23.7071C16.1054 23.5196 16 23.2652 16 23C16 21.1435 15.2625 19.363 13.9497 18.0503C12.637 16.7375 10.8565 16 9 16C7.14349 16 5.36301 16.7375 4.05025 18.0503C2.7375 19.363 2 21.1435 2 23C2 23.2652 1.89464 23.5196 1.70711 23.7071C1.51957 23.8946 1.26522 24 1 24C0.734784 24 0.48043 23.8946 0.292893 23.7071C0.105357 23.5196 0 23.2652 0 23C0 20.6131 0.948212 18.3239 2.63604 16.636C4.32387 14.9482 6.61305 14 9 14C11.3869 14 13.6761 14.9482 15.364 16.636C17.0518 18.3239 18 20.6131 18 23ZM23.707 14.293C23.8025 14.3853 23.8787 14.4956 23.9311 14.6176C23.9835 14.7396 24.0111 14.8708 24.0123 15.0036C24.0134 15.1364 23.9881 15.2681 23.9378 15.391C23.8875 15.5139 23.8133 15.6255 23.7194 15.7194C23.6255 15.8133 23.5139 15.8875 23.391 15.9378C23.2681 15.9881 23.1364 16.0134 23.0036 16.0123C22.8708 16.0111 22.7396 15.9835 22.6176 15.9311C22.4956 15.8787 22.3852 15.8025 22.293 15.707L20.5 13.914L18.707 15.707C18.5184 15.8892 18.2658 15.99 18.0036 15.9877C17.7414 15.9854 17.4906 15.8802 17.3052 15.6948C17.1198 15.5094 17.0146 15.2586 17.0123 14.9964C17.01 14.7342 17.1108 14.4816 17.293 14.293L19.086 12.5L17.293 10.707C17.1108 10.5184 17.01 10.2658 17.0123 10.0036C17.0146 9.74141 17.1198 9.49059 17.3052 9.30519C17.4906 9.11978 17.7414 9.01461 18.0036 9.01233C18.2658 9.01005 18.5184 9.11085 18.707 9.293L20.5 11.086L22.293 9.293C22.4816 9.11085 22.7342 9.01005 22.9964 9.01233C23.2586 9.01461 23.5094 9.11978 23.6948 9.30519C23.8802 9.49059 23.9854 9.74141 23.9877 10.0036C23.99 10.2658 23.8892 10.5184 23.707 10.707L21.914 12.5L23.707 14.293Z" fill="currentColor"/>
  </symbol>
  <symbol fill="none" viewBox="0 0 24 24" id="user">
    <path d="M12 11.9999C13.1867 11.9999 14.3467 11.648 15.3334 10.9888C16.3201 10.3295 17.0892 9.3924 17.5433 8.29604C17.9974 7.19969 18.1162 5.99329 17.8847 4.8294C17.6532 3.66551 17.0818 2.59642 16.2426 1.7573C15.4035 0.918186 14.3344 0.346741 13.1705 0.11523C12.0067 -0.116281 10.8003 0.00253868 9.7039 0.456664C8.60754 0.91079 7.67047 1.67983 7.01118 2.66652C6.35189 3.65321 6 4.81325 6 5.99994C6.00159 7.59075 6.63424 9.11595 7.75911 10.2408C8.88399 11.3657 10.4092 11.9984 12 11.9999ZM12 1.99994C12.7911 1.99994 13.5645 2.23454 14.2223 2.67406C14.8801 3.11359 15.3928 3.7383 15.6955 4.46921C15.9983 5.20011 16.0775 6.00438 15.9231 6.7803C15.7688 7.55623 15.3878 8.26896 14.8284 8.82837C14.269 9.38778 13.5563 9.76874 12.7804 9.92308C12.0044 10.0774 11.2002 9.99821 10.4693 9.69546C9.73836 9.39271 9.11365 8.88002 8.67412 8.22222C8.2346 7.56443 8 6.79107 8 5.99994C8 4.93908 8.42143 3.92166 9.17157 3.17151C9.92172 2.42137 10.9391 1.99994 12 1.99994Z" fill="currentColor"/>
    <path d="M12 14.0006C9.61386 14.0033 7.32622 14.9523 5.63896 16.6396C3.95171 18.3268 3.00265 20.6145 3 23.0006C3 23.2658 3.10536 23.5202 3.29289 23.7077C3.48043 23.8953 3.73478 24.0006 4 24.0006C4.26522 24.0006 4.51957 23.8953 4.70711 23.7077C4.89464 23.5202 5 23.2658 5 23.0006C5 21.1441 5.7375 19.3636 7.05025 18.0509C8.36301 16.7381 10.1435 16.0006 12 16.0006C13.8565 16.0006 15.637 16.7381 16.9497 18.0509C18.2625 19.3636 19 21.1441 19 23.0006C19 23.2658 19.1054 23.5202 19.2929 23.7077C19.4804 23.8953 19.7348 24.0006 20 24.0006C20.2652 24.0006 20.5196 23.8953 20.7071 23.7077C20.8946 23.5202 21 23.2658 21 23.0006C20.9974 20.6145 20.0483 18.3268 18.361 16.6396C16.6738 14.9523 14.3861 14.0033 12 14.0006Z" fill="currentColor"/>
  </symbol>
  <symbol fill="none" viewBox="0 0 24 24" id="zoom-in">
    <path d="M23.7068 22.2937L17.7378 16.3247C19.3644 14.3353 20.1642 11.7968 19.9716 9.23426C19.7791 6.67173 18.609 4.28123 16.7034 2.55722C14.7977 0.833208 12.3024 -0.0924103 9.73342 -0.0281784C7.16447 0.0360534 4.71849 1.08522 2.9014 2.90231C1.08431 4.7194 0.0351379 7.16539 -0.029094 9.73434C-0.0933258 12.3033 0.832293 14.7987 2.5563 16.7043C4.28031 18.6099 6.67081 19.78 9.23334 19.9725C11.7959 20.1651 14.3344 19.3653 16.3238 17.7387L22.2928 23.7077C22.4814 23.8899 22.734 23.9907 22.9962 23.9884C23.2584 23.9861 23.5092 23.8809 23.6946 23.6955C23.88 23.5101 23.9852 23.2593 23.9875 22.9971C23.9897 22.7349 23.8889 22.4823 23.7068 22.2937ZM9.99978 18.0007C8.41753 18.0007 6.87081 17.5315 5.55522 16.6525C4.23963 15.7734 3.21425 14.524 2.60875 13.0622C2.00324 11.6004 1.84482 9.99182 2.1535 8.43998C2.46218 6.88813 3.22411 5.46266 4.34293 4.34384C5.46175 3.22502 6.88721 2.4631 8.43906 2.15442C9.99091 1.84573 11.5994 2.00416 13.0613 2.60966C14.5231 3.21516 15.7725 4.24054 16.6515 5.55614C17.5306 6.87173 17.9998 8.41845 17.9998 10.0007C17.9974 12.1217 17.1538 14.1551 15.654 15.6549C14.1542 17.1547 12.1208 17.9983 9.99978 18.0007Z" fill="currentColor"/>
    <path d="M13 8.99999H11V7C11 6.73478 10.8946 6.48043 10.7071 6.29289C10.5196 6.10536 10.2652 6 9.99999 6C9.73478 6 9.48042 6.10536 9.29289 6.29289C9.10535 6.48043 8.99999 6.73478 8.99999 7V8.99999H7C6.73478 8.99999 6.48043 9.10535 6.29289 9.29289C6.10536 9.48042 6 9.73478 6 9.99999C6 10.2652 6.10536 10.5196 6.29289 10.7071C6.48043 10.8946 6.73478 11 7 11H8.99999V13C8.99999 13.2652 9.10535 13.5196 9.29289 13.7071C9.48042 13.8946 9.73478 14 9.99999 14C10.2652 14 10.5196 13.8946 10.7071 13.7071C10.8946 13.5196 11 13.2652 11 13V11H13C13.2652 11 13.5196 10.8946 13.7071 10.7071C13.8946 10.5196 14 10.2652 14 9.99999C14 9.73478 13.8946 9.48042 13.7071 9.29289C13.5196 9.10535 13.2652 8.99999 13 8.99999Z" fill="currentColor"/>
  </symbol>
  <symbol fill="none" viewBox="0 0 24 24" id="zoom-out">
    <path d="M23.7068 22.2937L17.7378 16.3247C19.3644 14.3353 20.1642 11.7968 19.9716 9.23426C19.7791 6.67173 18.609 4.28123 16.7034 2.55722C14.7977 0.833208 12.3024 -0.0924103 9.73342 -0.0281784C7.16447 0.0360534 4.71849 1.08522 2.9014 2.90231C1.08431 4.7194 0.0351379 7.16539 -0.029094 9.73434C-0.0933258 12.3033 0.832293 14.7987 2.5563 16.7043C4.28031 18.6099 6.67081 19.78 9.23334 19.9725C11.7959 20.1651 14.3344 19.3653 16.3238 17.7387L22.2928 23.7077C22.4814 23.8899 22.734 23.9907 22.9962 23.9884C23.2584 23.9861 23.5092 23.8809 23.6946 23.6955C23.88 23.5101 23.9852 23.2593 23.9875 22.9971C23.9897 22.7349 23.8889 22.4823 23.7068 22.2937ZM9.99978 18.0007C8.41753 18.0007 6.87081 17.5315 5.55522 16.6525C4.23963 15.7734 3.21425 14.524 2.60875 13.0622C2.00324 11.6004 1.84482 9.99182 2.1535 8.43998C2.46218 6.88813 3.22411 5.46266 4.34293 4.34384C5.46175 3.22502 6.88721 2.4631 8.43906 2.15442C9.99091 1.84573 11.5994 2.00416 13.0613 2.60966C14.5231 3.21516 15.7725 4.24054 16.6515 5.55614C17.5306 6.87173 17.9998 8.41845 17.9998 10.0007C17.9974 12.1217 17.1538 14.1551 15.654 15.6549C14.1542 17.1547 12.1208 17.9983 9.99978 18.0007Z" fill="currentColor"/>
    <path d="M13 9H7C6.73478 9 6.48043 9.10536 6.29289 9.29289C6.10536 9.48043 6 9.73478 6 10C6 10.2652 6.10536 10.5196 6.29289 10.7071C6.48043 10.8946 6.73478 11 7 11H13C13.2652 11 13.5196 10.8946 13.7071 10.7071C13.8946 10.5196 14 10.2652 14 10C14 9.73478 13.8946 9.48043 13.7071 9.29289C13.5196 9.10536 13.2652 9 13 9Z" fill="currentColor"/>
  </symbol>
</svg>

